<svg xmlns="http://www.w3.org/2000/svg" xmlns:xlink="http://www.w3.org/1999/xlink" width="396" zoomAndPan="magnify" viewBox="0 0 297 74.249996" height="99" preserveAspectRatio="xMidYMid meet" version="1.0"><defs><g/><clipPath id="5e472ea5ab"><path d="M 2.199219 13.078125 L 23 13.078125 L 23 45 L 2.199219 45 Z M 2.199219 13.078125 " clip-rule="nonzero"/></clipPath><clipPath id="f28b108211"><path d="M 15 13.078125 L 52.6875 13.078125 L 52.6875 59.855469 L 15 59.855469 Z M 15 13.078125 " clip-rule="nonzero"/></clipPath></defs><g fill="#000000" fill-opacity="1"><g transform="translate(58.506885, 45.869015)"><g><path d="M 22.703125 -25.03125 C 22.609375 -23.832031 22.539062 -22.675781 22.5 -21.5625 C 22.46875 -20.457031 22.453125 -19.609375 22.453125 -19.015625 C 22.453125 -18.503906 22.460938 -18.007812 22.484375 -17.53125 C 22.515625 -17.0625 22.539062 -16.664062 22.5625 -16.34375 L 21.75 -16.34375 C 21.375 -18.320312 20.894531 -19.882812 20.3125 -21.03125 C 19.738281 -22.1875 19.050781 -23.003906 18.25 -23.484375 C 17.445312 -23.972656 16.503906 -24.21875 15.421875 -24.21875 L 14.609375 -24.21875 L 14.609375 -4.03125 C 14.609375 -3.082031 14.707031 -2.375 14.90625 -1.90625 C 15.101562 -1.4375 15.472656 -1.125 16.015625 -0.96875 C 16.554688 -0.820312 17.347656 -0.734375 18.390625 -0.703125 L 18.390625 0 C 17.660156 -0.0195312 16.6875 -0.0390625 15.46875 -0.0625 C 14.257812 -0.09375 12.992188 -0.109375 11.671875 -0.109375 C 10.367188 -0.109375 9.140625 -0.09375 7.984375 -0.0625 C 6.835938 -0.0390625 5.910156 -0.0195312 5.203125 0 L 5.203125 -0.703125 C 6.253906 -0.734375 7.050781 -0.820312 7.59375 -0.96875 C 8.144531 -1.125 8.515625 -1.4375 8.703125 -1.90625 C 8.890625 -2.375 8.984375 -3.082031 8.984375 -4.03125 L 8.984375 -24.21875 L 8.203125 -24.21875 C 7.117188 -24.21875 6.175781 -23.972656 5.375 -23.484375 C 4.570312 -23.003906 3.882812 -22.191406 3.3125 -21.046875 C 2.75 -19.910156 2.257812 -18.34375 1.84375 -16.34375 L 1.03125 -16.34375 C 1.070312 -16.664062 1.097656 -17.0625 1.109375 -17.53125 C 1.117188 -18.007812 1.125 -18.503906 1.125 -19.015625 C 1.125 -19.609375 1.109375 -20.457031 1.078125 -21.5625 C 1.046875 -22.675781 0.984375 -23.832031 0.890625 -25.03125 C 1.972656 -25.007812 3.15625 -24.984375 4.4375 -24.953125 C 5.71875 -24.929688 7.003906 -24.921875 8.296875 -24.921875 C 9.597656 -24.921875 10.769531 -24.921875 11.8125 -24.921875 C 12.875 -24.921875 14.046875 -24.921875 15.328125 -24.921875 C 16.609375 -24.921875 17.894531 -24.929688 19.1875 -24.953125 C 20.488281 -24.984375 21.660156 -25.007812 22.703125 -25.03125 Z M 22.703125 -25.03125 "/></g></g></g><g fill="#000000" fill-opacity="1"><g transform="translate(84.741404, 45.869015)"><g><path d="M 8.03125 -27.65625 L 8.03125 -15.484375 C 8.613281 -16.710938 9.40625 -17.566406 10.40625 -18.046875 C 11.414062 -18.535156 12.546875 -18.78125 13.796875 -18.78125 C 14.804688 -18.78125 15.617188 -18.65625 16.234375 -18.40625 C 16.847656 -18.15625 17.332031 -17.816406 17.6875 -17.390625 C 18.082031 -16.941406 18.367188 -16.363281 18.546875 -15.65625 C 18.722656 -14.957031 18.8125 -14.003906 18.8125 -12.796875 L 18.8125 -3.28125 C 18.8125 -2.289062 18.984375 -1.617188 19.328125 -1.265625 C 19.671875 -0.921875 20.253906 -0.75 21.078125 -0.75 L 21.078125 0 C 20.628906 -0.0195312 19.953125 -0.046875 19.046875 -0.078125 C 18.140625 -0.117188 17.257812 -0.140625 16.40625 -0.140625 C 15.488281 -0.140625 14.597656 -0.117188 13.734375 -0.078125 C 12.878906 -0.046875 12.238281 -0.0195312 11.8125 0 L 11.8125 -0.75 C 12.519531 -0.75 13.015625 -0.921875 13.296875 -1.265625 C 13.578125 -1.617188 13.71875 -2.289062 13.71875 -3.28125 L 13.71875 -14.28125 C 13.71875 -14.875 13.65625 -15.390625 13.53125 -15.828125 C 13.414062 -16.265625 13.195312 -16.601562 12.875 -16.84375 C 12.5625 -17.09375 12.113281 -17.21875 11.53125 -17.21875 C 10.894531 -17.21875 10.3125 -17.046875 9.78125 -16.703125 C 9.25 -16.359375 8.820312 -15.878906 8.5 -15.265625 C 8.1875 -14.660156 8.03125 -13.957031 8.03125 -13.15625 L 8.03125 -3.28125 C 8.03125 -2.289062 8.171875 -1.617188 8.453125 -1.265625 C 8.734375 -0.921875 9.226562 -0.75 9.9375 -0.75 L 9.9375 0 C 9.507812 -0.0195312 8.882812 -0.046875 8.0625 -0.078125 C 7.238281 -0.117188 6.398438 -0.140625 5.546875 -0.140625 C 4.628906 -0.140625 3.703125 -0.117188 2.765625 -0.078125 C 1.835938 -0.046875 1.140625 -0.0195312 0.671875 0 L 0.671875 -0.75 C 1.492188 -0.75 2.078125 -0.921875 2.421875 -1.265625 C 2.765625 -1.617188 2.9375 -2.289062 2.9375 -3.28125 L 2.9375 -23.40625 C 2.9375 -24.46875 2.773438 -25.25 2.453125 -25.75 C 2.140625 -26.257812 1.546875 -26.515625 0.671875 -26.515625 L 0.671875 -27.265625 C 1.421875 -27.191406 2.148438 -27.15625 2.859375 -27.15625 C 3.828125 -27.15625 4.75 -27.195312 5.625 -27.28125 C 6.5 -27.363281 7.300781 -27.488281 8.03125 -27.65625 Z M 8.03125 -27.65625 "/></g></g></g><g fill="#000000" fill-opacity="1"><g transform="translate(108.85457, 45.869015)"><g><path d="M 9.96875 -18.78125 C 11.6875 -18.78125 13.191406 -18.457031 14.484375 -17.8125 C 15.785156 -17.175781 16.800781 -16.148438 17.53125 -14.734375 C 18.269531 -13.328125 18.640625 -11.457031 18.640625 -9.125 C 18.640625 -6.789062 18.269531 -4.921875 17.53125 -3.515625 C 16.800781 -2.117188 15.785156 -1.097656 14.484375 -0.453125 C 13.191406 0.179688 11.6875 0.5 9.96875 0.5 C 8.289062 0.5 6.796875 0.179688 5.484375 -0.453125 C 4.179688 -1.097656 3.160156 -2.117188 2.421875 -3.515625 C 1.679688 -4.921875 1.3125 -6.789062 1.3125 -9.125 C 1.3125 -11.457031 1.679688 -13.328125 2.421875 -14.734375 C 3.160156 -16.148438 4.179688 -17.175781 5.484375 -17.8125 C 6.796875 -18.457031 8.289062 -18.78125 9.96875 -18.78125 Z M 9.96875 -18.0625 C 9.03125 -18.0625 8.238281 -17.359375 7.59375 -15.953125 C 6.957031 -14.554688 6.640625 -12.28125 6.640625 -9.125 C 6.640625 -5.96875 6.957031 -3.691406 7.59375 -2.296875 C 8.238281 -0.910156 9.03125 -0.21875 9.96875 -0.21875 C 10.9375 -0.21875 11.734375 -0.910156 12.359375 -2.296875 C 12.984375 -3.691406 13.296875 -5.96875 13.296875 -9.125 C 13.296875 -12.28125 12.984375 -14.554688 12.359375 -15.953125 C 11.734375 -17.359375 10.9375 -18.0625 9.96875 -18.0625 Z M 9.96875 -18.0625 "/></g></g></g><g fill="#000000" fill-opacity="1"><g transform="translate(131.447421, 45.869015)"><g><path d="M 13.015625 -18.78125 C 13.765625 -18.78125 14.375 -18.617188 14.84375 -18.296875 C 15.320312 -17.984375 15.671875 -17.578125 15.890625 -17.078125 C 16.117188 -16.585938 16.234375 -16.066406 16.234375 -15.515625 C 16.234375 -14.648438 15.976562 -13.9375 15.46875 -13.375 C 14.957031 -12.820312 14.289062 -12.546875 13.46875 -12.546875 C 12.644531 -12.546875 12.003906 -12.753906 11.546875 -13.171875 C 11.085938 -13.585938 10.859375 -14.132812 10.859375 -14.8125 C 10.859375 -15.476562 11.003906 -16.023438 11.296875 -16.453125 C 11.585938 -16.890625 11.957031 -17.265625 12.40625 -17.578125 C 12.082031 -17.671875 11.753906 -17.65625 11.421875 -17.53125 C 10.972656 -17.46875 10.546875 -17.285156 10.140625 -16.984375 C 9.742188 -16.691406 9.40625 -16.328125 9.125 -15.890625 C 8.84375 -15.453125 8.617188 -14.976562 8.453125 -14.46875 C 8.285156 -13.96875 8.203125 -13.484375 8.203125 -13.015625 L 8.203125 -3.640625 C 8.203125 -2.503906 8.476562 -1.738281 9.03125 -1.34375 C 9.582031 -0.945312 10.414062 -0.75 11.53125 -0.75 L 11.53125 0 C 10.988281 -0.0195312 10.195312 -0.046875 9.15625 -0.078125 C 8.125 -0.117188 7.039062 -0.140625 5.90625 -0.140625 C 4.957031 -0.140625 4 -0.117188 3.03125 -0.078125 C 2.070312 -0.046875 1.34375 -0.0195312 0.84375 0 L 0.84375 -0.75 C 1.675781 -0.75 2.257812 -0.921875 2.59375 -1.265625 C 2.9375 -1.617188 3.109375 -2.289062 3.109375 -3.28125 L 3.109375 -14.421875 C 3.109375 -15.484375 2.945312 -16.265625 2.625 -16.765625 C 2.3125 -17.273438 1.71875 -17.53125 0.84375 -17.53125 L 0.84375 -18.28125 C 1.601562 -18.207031 2.335938 -18.171875 3.046875 -18.171875 C 4.035156 -18.171875 4.957031 -18.210938 5.8125 -18.296875 C 6.675781 -18.378906 7.472656 -18.503906 8.203125 -18.671875 L 8.203125 -15.375 C 8.484375 -16.019531 8.859375 -16.597656 9.328125 -17.109375 C 9.804688 -17.628906 10.347656 -18.035156 10.953125 -18.328125 C 11.566406 -18.628906 12.253906 -18.78125 13.015625 -18.78125 Z M 13.015625 -18.78125 "/></g></g></g><g fill="#000000" fill-opacity="1"><g transform="translate(150.575383, 45.869015)"><g><path d="M 14 -18.78125 C 14.988281 -18.78125 15.796875 -18.65625 16.421875 -18.40625 C 17.046875 -18.15625 17.535156 -17.816406 17.890625 -17.390625 C 18.265625 -16.941406 18.539062 -16.363281 18.71875 -15.65625 C 18.894531 -14.957031 18.984375 -14.003906 18.984375 -12.796875 L 18.984375 -3.28125 C 18.984375 -2.289062 19.15625 -1.617188 19.5 -1.265625 C 19.84375 -0.921875 20.425781 -0.75 21.25 -0.75 L 21.25 0 C 20.800781 -0.0195312 20.128906 -0.046875 19.234375 -0.078125 C 18.335938 -0.117188 17.453125 -0.140625 16.578125 -0.140625 C 15.679688 -0.140625 14.800781 -0.117188 13.9375 -0.078125 C 13.082031 -0.046875 12.429688 -0.0195312 11.984375 0 L 11.984375 -0.75 C 12.691406 -0.75 13.1875 -0.921875 13.46875 -1.265625 C 13.75 -1.617188 13.890625 -2.289062 13.890625 -3.28125 L 13.890625 -14.28125 C 13.890625 -14.875 13.832031 -15.390625 13.71875 -15.828125 C 13.601562 -16.265625 13.390625 -16.601562 13.078125 -16.84375 C 12.773438 -17.09375 12.316406 -17.21875 11.703125 -17.21875 C 11.066406 -17.21875 10.484375 -17.039062 9.953125 -16.6875 C 9.421875 -16.332031 8.992188 -15.84375 8.671875 -15.21875 C 8.359375 -14.59375 8.203125 -13.894531 8.203125 -13.125 L 8.203125 -3.28125 C 8.203125 -2.289062 8.347656 -1.617188 8.640625 -1.265625 C 8.941406 -0.921875 9.429688 -0.75 10.109375 -0.75 L 10.109375 0 C 9.679688 -0.0195312 9.0625 -0.046875 8.25 -0.078125 C 7.4375 -0.117188 6.597656 -0.140625 5.734375 -0.140625 C 4.835938 -0.140625 3.914062 -0.117188 2.96875 -0.078125 C 2.03125 -0.046875 1.320312 -0.0195312 0.84375 0 L 0.84375 -0.75 C 1.675781 -0.75 2.257812 -0.921875 2.59375 -1.265625 C 2.9375 -1.617188 3.109375 -2.289062 3.109375 -3.28125 L 3.109375 -14.421875 C 3.109375 -15.484375 2.945312 -16.265625 2.625 -16.765625 C 2.3125 -17.273438 1.71875 -17.53125 0.84375 -17.53125 L 0.84375 -18.28125 C 1.601562 -18.207031 2.335938 -18.171875 3.046875 -18.171875 C 4.035156 -18.171875 4.957031 -18.210938 5.8125 -18.296875 C 6.675781 -18.378906 7.472656 -18.503906 8.203125 -18.671875 L 8.203125 -15.484375 C 8.796875 -16.691406 9.597656 -17.539062 10.609375 -18.03125 C 11.617188 -18.53125 12.75 -18.78125 14 -18.78125 Z M 14 -18.78125 "/></g></g></g><g fill="#ff9130" fill-opacity="1"><g transform="translate(174.911684, 45.869015)"><g><path d="M 6.046875 -30.34375 L 6.046875 6.890625 L 2.9375 6.890625 L 2.9375 -30.34375 Z M 6.046875 -30.34375 "/></g></g></g><g fill="#000000" fill-opacity="1"><g transform="translate(186.478577, 45.869015)"><g><path d="M 20.125 -25.03125 C 20.03125 -23.96875 19.960938 -22.941406 19.921875 -21.953125 C 19.890625 -20.960938 19.875 -20.195312 19.875 -19.65625 C 19.875 -19.132812 19.882812 -18.640625 19.90625 -18.171875 C 19.925781 -17.703125 19.953125 -17.300781 19.984375 -16.96875 L 19.171875 -16.96875 C 18.859375 -18.8125 18.429688 -20.253906 17.890625 -21.296875 C 17.347656 -22.347656 16.679688 -23.097656 15.890625 -23.546875 C 15.097656 -23.992188 14.160156 -24.21875 13.078125 -24.21875 L 11.921875 -24.21875 C 11.234375 -24.21875 10.710938 -24.160156 10.359375 -24.046875 C 10.003906 -23.929688 9.765625 -23.695312 9.640625 -23.34375 C 9.523438 -22.988281 9.46875 -22.441406 9.46875 -21.703125 L 9.46875 -3.953125 C 9.46875 -3.035156 9.5625 -2.351562 9.75 -1.90625 C 9.945312 -1.457031 10.316406 -1.160156 10.859375 -1.015625 C 11.398438 -0.878906 12.203125 -0.800781 13.265625 -0.78125 L 13.265625 0 C 12.523438 -0.0195312 11.578125 -0.0390625 10.421875 -0.0625 C 9.273438 -0.09375 8.0625 -0.109375 6.78125 -0.109375 C 5.769531 -0.109375 4.78125 -0.09375 3.8125 -0.0625 C 2.851562 -0.0390625 1.984375 -0.0195312 1.203125 0 L 1.203125 -0.703125 C 1.953125 -0.753906 2.515625 -0.847656 2.890625 -0.984375 C 3.273438 -1.128906 3.53125 -1.410156 3.65625 -1.828125 C 3.789062 -2.253906 3.859375 -2.894531 3.859375 -3.75 L 3.859375 -21.28125 C 3.859375 -22.15625 3.789062 -22.796875 3.65625 -23.203125 C 3.53125 -23.617188 3.269531 -23.90625 2.875 -24.0625 C 2.488281 -24.21875 1.929688 -24.304688 1.203125 -24.328125 L 1.203125 -25.03125 C 2.171875 -25.007812 3.195312 -24.992188 4.28125 -24.984375 C 5.363281 -24.972656 6.4375 -24.957031 7.5 -24.9375 C 8.5625 -24.925781 9.550781 -24.921875 10.46875 -24.921875 C 11.382812 -24.921875 12.140625 -24.921875 12.734375 -24.921875 C 13.816406 -24.921875 15.046875 -24.925781 16.421875 -24.9375 C 17.804688 -24.957031 19.039062 -24.988281 20.125 -25.03125 Z M 14.84375 -12.796875 C 14.84375 -12.796875 14.84375 -12.675781 14.84375 -12.4375 C 14.84375 -12.207031 14.84375 -12.09375 14.84375 -12.09375 L 8.421875 -12.09375 C 8.421875 -12.09375 8.421875 -12.207031 8.421875 -12.4375 C 8.421875 -12.675781 8.421875 -12.796875 8.421875 -12.796875 Z M 15.734375 -17.46875 C 15.640625 -16.125 15.597656 -15.097656 15.609375 -14.390625 C 15.617188 -13.679688 15.625 -13.035156 15.625 -12.453125 C 15.625 -11.859375 15.632812 -11.207031 15.65625 -10.5 C 15.6875 -9.789062 15.75 -8.765625 15.84375 -7.421875 L 15.03125 -7.421875 C 14.882812 -8.242188 14.65625 -9.007812 14.34375 -9.71875 C 14.039062 -10.425781 13.59375 -11 13 -11.4375 C 12.414062 -11.875 11.65625 -12.09375 10.71875 -12.09375 L 10.71875 -12.796875 C 11.425781 -12.796875 12.019531 -12.941406 12.5 -13.234375 C 12.976562 -13.535156 13.382812 -13.925781 13.71875 -14.40625 C 14.050781 -14.894531 14.3125 -15.410156 14.5 -15.953125 C 14.6875 -16.492188 14.828125 -17 14.921875 -17.46875 Z M 15.734375 -17.46875 "/></g></g></g><g fill="#000000" fill-opacity="1"><g transform="translate(210.026045, 45.869015)"><g><path d="M 5.4375 -27.40625 C 6.425781 -27.40625 7.207031 -27.160156 7.78125 -26.671875 C 8.363281 -26.191406 8.65625 -25.53125 8.65625 -24.6875 C 8.65625 -23.832031 8.363281 -23.160156 7.78125 -22.671875 C 7.207031 -22.191406 6.425781 -21.953125 5.4375 -21.953125 C 4.445312 -21.953125 3.660156 -22.191406 3.078125 -22.671875 C 2.503906 -23.160156 2.21875 -23.832031 2.21875 -24.6875 C 2.21875 -25.53125 2.503906 -26.191406 3.078125 -26.671875 C 3.660156 -27.160156 4.445312 -27.40625 5.4375 -27.40625 Z M 8.203125 -18.671875 L 8.203125 -3.28125 C 8.203125 -2.289062 8.375 -1.617188 8.71875 -1.265625 C 9.0625 -0.921875 9.644531 -0.75 10.46875 -0.75 L 10.46875 0 C 10.039062 -0.0195312 9.378906 -0.046875 8.484375 -0.078125 C 7.585938 -0.117188 6.679688 -0.140625 5.765625 -0.140625 C 4.847656 -0.140625 3.914062 -0.117188 2.96875 -0.078125 C 2.03125 -0.046875 1.320312 -0.0195312 0.84375 0 L 0.84375 -0.75 C 1.675781 -0.75 2.257812 -0.921875 2.59375 -1.265625 C 2.9375 -1.617188 3.109375 -2.289062 3.109375 -3.28125 L 3.109375 -14.421875 C 3.109375 -15.484375 2.945312 -16.265625 2.625 -16.765625 C 2.3125 -17.273438 1.71875 -17.53125 0.84375 -17.53125 L 0.84375 -18.28125 C 1.601562 -18.207031 2.335938 -18.171875 3.046875 -18.171875 C 4.035156 -18.171875 4.957031 -18.210938 5.8125 -18.296875 C 6.675781 -18.378906 7.472656 -18.503906 8.203125 -18.671875 Z M 8.203125 -18.671875 "/></g></g></g><g fill="#000000" fill-opacity="1"><g transform="translate(223.779892, 45.869015)"><g><path d="M 9.96875 -18.78125 C 12.039062 -18.78125 13.664062 -18.164062 14.84375 -16.9375 C 16.03125 -15.707031 16.625 -13.703125 16.625 -10.921875 L 4.984375 -10.921875 L 4.921875 -11.59375 L 12.15625 -11.59375 C 12.1875 -12.75 12.117188 -13.816406 11.953125 -14.796875 C 11.785156 -15.773438 11.523438 -16.554688 11.171875 -17.140625 C 10.816406 -17.734375 10.347656 -18.03125 9.765625 -18.03125 C 8.929688 -18.03125 8.222656 -17.507812 7.640625 -16.46875 C 7.066406 -15.4375 6.722656 -13.71875 6.609375 -11.3125 L 6.71875 -11.109375 C 6.695312 -10.816406 6.675781 -10.519531 6.65625 -10.21875 C 6.644531 -9.914062 6.640625 -9.597656 6.640625 -9.265625 C 6.640625 -7.640625 6.867188 -6.316406 7.328125 -5.296875 C 7.796875 -4.285156 8.378906 -3.550781 9.078125 -3.09375 C 9.785156 -2.632812 10.507812 -2.40625 11.25 -2.40625 C 11.738281 -2.40625 12.25 -2.476562 12.78125 -2.625 C 13.3125 -2.78125 13.847656 -3.066406 14.390625 -3.484375 C 14.929688 -3.898438 15.4375 -4.484375 15.90625 -5.234375 L 16.546875 -5.015625 C 16.265625 -4.117188 15.816406 -3.242188 15.203125 -2.390625 C 14.585938 -1.546875 13.804688 -0.851562 12.859375 -0.3125 C 11.921875 0.226562 10.789062 0.5 9.46875 0.5 C 7.875 0.5 6.460938 0.15625 5.234375 -0.53125 C 4.003906 -1.21875 3.039062 -2.253906 2.34375 -3.640625 C 1.65625 -5.035156 1.3125 -6.804688 1.3125 -8.953125 C 1.3125 -11.140625 1.679688 -12.960938 2.421875 -14.421875 C 3.160156 -15.890625 4.179688 -16.984375 5.484375 -17.703125 C 6.796875 -18.421875 8.289062 -18.78125 9.96875 -18.78125 Z M 9.96875 -18.78125 "/></g></g></g><g fill="#000000" fill-opacity="1"><g transform="translate(244.21603, 45.869015)"><g><path d="M 8.0625 -27.6875 L 8.0625 -3.28125 C 8.0625 -2.289062 8.234375 -1.617188 8.578125 -1.265625 C 8.921875 -0.921875 9.503906 -0.75 10.328125 -0.75 L 10.328125 0 C 9.878906 -0.0195312 9.207031 -0.046875 8.3125 -0.078125 C 7.414062 -0.117188 6.507812 -0.140625 5.59375 -0.140625 C 4.664062 -0.140625 3.738281 -0.117188 2.8125 -0.078125 C 1.882812 -0.046875 1.179688 -0.0195312 0.703125 0 L 0.703125 -0.75 C 1.523438 -0.75 2.109375 -0.921875 2.453125 -1.265625 C 2.796875 -1.617188 2.96875 -2.289062 2.96875 -3.28125 L 2.96875 -23.4375 C 2.96875 -24.5 2.804688 -25.285156 2.484375 -25.796875 C 2.171875 -26.304688 1.578125 -26.5625 0.703125 -26.5625 L 0.703125 -27.296875 C 1.460938 -27.222656 2.195312 -27.1875 2.90625 -27.1875 C 3.863281 -27.1875 4.78125 -27.226562 5.65625 -27.3125 C 6.53125 -27.394531 7.332031 -27.519531 8.0625 -27.6875 Z M 8.0625 -27.6875 "/></g></g></g><g fill="#000000" fill-opacity="1"><g transform="translate(257.828455, 45.869015)"><g><path d="M 18.25 -27.6875 L 18.25 -3.890625 C 18.25 -2.828125 18.410156 -2.039062 18.734375 -1.53125 C 19.066406 -1.03125 19.660156 -0.78125 20.515625 -0.78125 L 20.515625 -0.03125 C 19.773438 -0.101562 19.039062 -0.140625 18.3125 -0.140625 C 17.320312 -0.140625 16.394531 -0.101562 15.53125 -0.03125 C 14.675781 0.0390625 13.882812 0.171875 13.15625 0.359375 L 13.15625 -23.4375 C 13.15625 -24.5 12.992188 -25.285156 12.671875 -25.796875 C 12.359375 -26.304688 11.765625 -26.5625 10.890625 -26.5625 L 10.890625 -27.296875 C 11.640625 -27.222656 12.367188 -27.1875 13.078125 -27.1875 C 14.046875 -27.1875 14.96875 -27.226562 15.84375 -27.3125 C 16.71875 -27.394531 17.519531 -27.519531 18.25 -27.6875 Z M 9.234375 -18.78125 C 10.265625 -18.78125 11.175781 -18.609375 11.96875 -18.265625 C 12.757812 -17.921875 13.378906 -17.347656 13.828125 -16.546875 L 13.40625 -16.15625 C 13.09375 -16.726562 12.679688 -17.132812 12.171875 -17.375 C 11.671875 -17.625 11.140625 -17.75 10.578125 -17.75 C 9.367188 -17.75 8.410156 -17.046875 7.703125 -15.640625 C 6.992188 -14.242188 6.65625 -12.082031 6.6875 -9.15625 C 6.6875 -7.15625 6.820312 -5.554688 7.09375 -4.359375 C 7.363281 -3.171875 7.75 -2.316406 8.25 -1.796875 C 8.757812 -1.285156 9.34375 -1.03125 10 -1.03125 C 10.800781 -1.03125 11.519531 -1.347656 12.15625 -1.984375 C 12.800781 -2.617188 13.144531 -3.476562 13.1875 -4.5625 L 13.359375 -3.328125 C 13.003906 -2.078125 12.429688 -1.125 11.640625 -0.46875 C 10.859375 0.175781 9.832031 0.5 8.5625 0.5 C 7.164062 0.5 5.921875 0.15625 4.828125 -0.53125 C 3.734375 -1.21875 2.878906 -2.269531 2.265625 -3.6875 C 1.648438 -5.113281 1.34375 -6.960938 1.34375 -9.234375 C 1.34375 -11.378906 1.679688 -13.148438 2.359375 -14.546875 C 3.046875 -15.953125 3.984375 -17.007812 5.171875 -17.71875 C 6.367188 -18.425781 7.722656 -18.78125 9.234375 -18.78125 Z M 9.234375 -18.78125 "/></g></g></g><g fill="#000000" fill-opacity="1"><g transform="translate(58.506885, 67.772455)"><g><path d="M 1.25 -4.109375 C 1.101562 -4.109375 0.972656 -4.132812 0.859375 -4.1875 C 0.753906 -4.25 0.671875 -4.328125 0.609375 -4.421875 C 0.546875 -4.515625 0.492188 -4.628906 0.453125 -4.765625 C 0.421875 -4.898438 0.40625 -5.039062 0.40625 -5.1875 C 0.40625 -5.488281 0.484375 -5.769531 0.640625 -6.03125 C 0.796875 -6.289062 1.035156 -6.5 1.359375 -6.65625 L 1.453125 -6.484375 C 1.273438 -6.410156 1.117188 -6.296875 0.984375 -6.140625 C 0.859375 -5.992188 0.785156 -5.835938 0.765625 -5.671875 C 0.722656 -5.546875 0.71875 -5.421875 0.75 -5.296875 C 0.882812 -5.441406 1.066406 -5.515625 1.296875 -5.515625 C 1.503906 -5.515625 1.671875 -5.453125 1.796875 -5.328125 C 1.929688 -5.203125 2 -5.03125 2 -4.8125 C 2 -4.601562 1.925781 -4.429688 1.78125 -4.296875 C 1.644531 -4.171875 1.46875 -4.109375 1.25 -4.109375 Z M 3.140625 -4.109375 C 2.992188 -4.109375 2.863281 -4.132812 2.75 -4.1875 C 2.644531 -4.25 2.554688 -4.328125 2.484375 -4.421875 C 2.429688 -4.515625 2.382812 -4.628906 2.34375 -4.765625 C 2.300781 -4.898438 2.28125 -5.039062 2.28125 -5.1875 C 2.28125 -5.488281 2.359375 -5.769531 2.515625 -6.03125 C 2.671875 -6.289062 2.914062 -6.5 3.25 -6.65625 L 3.328125 -6.484375 C 3.160156 -6.410156 3.007812 -6.296875 2.875 -6.140625 C 2.75 -5.992188 2.671875 -5.835938 2.640625 -5.671875 C 2.609375 -5.546875 2.609375 -5.421875 2.640625 -5.296875 C 2.773438 -5.441406 2.953125 -5.515625 3.171875 -5.515625 C 3.378906 -5.515625 3.550781 -5.453125 3.6875 -5.328125 C 3.820312 -5.203125 3.890625 -5.03125 3.890625 -4.8125 C 3.890625 -4.601562 3.816406 -4.429688 3.671875 -4.296875 C 3.535156 -4.171875 3.359375 -4.109375 3.140625 -4.109375 Z M 3.140625 -4.109375 "/></g></g></g><g fill="#000000" fill-opacity="1"><g transform="translate(64.348935, 67.772455)"><g><path d="M 6.140625 -6.484375 L 6.140625 -6.296875 C 5.941406 -6.273438 5.789062 -6.222656 5.6875 -6.140625 C 5.59375 -6.066406 5.53125 -5.945312 5.5 -5.78125 C 5.46875 -5.625 5.453125 -5.394531 5.453125 -5.09375 L 5.453125 -2.671875 C 5.453125 -2.265625 5.425781 -1.894531 5.375 -1.5625 C 5.320312 -1.238281 5.222656 -0.957031 5.078125 -0.71875 C 4.921875 -0.457031 4.6875 -0.25 4.375 -0.09375 C 4.070312 0.0507812 3.6875 0.125 3.21875 0.125 C 2.9375 0.125 2.648438 0.09375 2.359375 0.03125 C 2.066406 -0.03125 1.804688 -0.148438 1.578125 -0.328125 C 1.378906 -0.492188 1.226562 -0.679688 1.125 -0.890625 C 1.019531 -1.097656 0.945312 -1.34375 0.90625 -1.625 C 0.875 -1.90625 0.859375 -2.242188 0.859375 -2.640625 L 0.859375 -5.515625 C 0.859375 -5.734375 0.84375 -5.894531 0.8125 -6 C 0.78125 -6.113281 0.710938 -6.191406 0.609375 -6.234375 C 0.515625 -6.273438 0.367188 -6.296875 0.171875 -6.296875 L 0.171875 -6.484375 C 0.328125 -6.472656 0.535156 -6.460938 0.796875 -6.453125 C 1.054688 -6.453125 1.328125 -6.453125 1.609375 -6.453125 C 1.890625 -6.453125 2.15625 -6.453125 2.40625 -6.453125 C 2.664062 -6.460938 2.882812 -6.472656 3.0625 -6.484375 L 3.0625 -6.296875 C 2.851562 -6.296875 2.691406 -6.273438 2.578125 -6.234375 C 2.472656 -6.191406 2.398438 -6.113281 2.359375 -6 C 2.328125 -5.894531 2.3125 -5.734375 2.3125 -5.515625 L 2.3125 -2.0625 C 2.3125 -1.757812 2.332031 -1.488281 2.375 -1.25 C 2.414062 -1.007812 2.484375 -0.8125 2.578125 -0.65625 C 2.671875 -0.507812 2.800781 -0.394531 2.96875 -0.3125 C 3.132812 -0.226562 3.335938 -0.1875 3.578125 -0.1875 C 4.003906 -0.1875 4.335938 -0.285156 4.578125 -0.484375 C 4.816406 -0.691406 4.988281 -0.972656 5.09375 -1.328125 C 5.195312 -1.691406 5.25 -2.101562 5.25 -2.5625 L 5.25 -4.984375 C 5.25 -5.316406 5.226562 -5.570312 5.1875 -5.75 C 5.144531 -5.9375 5.0625 -6.066406 4.9375 -6.140625 C 4.8125 -6.222656 4.617188 -6.273438 4.359375 -6.296875 L 4.359375 -6.484375 C 4.472656 -6.472656 4.625 -6.460938 4.8125 -6.453125 C 5 -6.453125 5.175781 -6.453125 5.34375 -6.453125 C 5.488281 -6.453125 5.632812 -6.453125 5.78125 -6.453125 C 5.925781 -6.460938 6.046875 -6.472656 6.140625 -6.484375 Z M 6.140625 -6.484375 "/></g></g></g><g fill="#000000" fill-opacity="1"><g transform="translate(72.250265, 67.772455)"><g><path d="M 3.625 -4.859375 C 3.882812 -4.859375 4.09375 -4.828125 4.25 -4.765625 C 4.414062 -4.703125 4.546875 -4.613281 4.640625 -4.5 C 4.734375 -4.382812 4.800781 -4.234375 4.84375 -4.046875 C 4.894531 -3.867188 4.921875 -3.625 4.921875 -3.3125 L 4.921875 -0.84375 C 4.921875 -0.59375 4.960938 -0.421875 5.046875 -0.328125 C 5.140625 -0.234375 5.289062 -0.1875 5.5 -0.1875 L 5.5 0 C 5.382812 -0.0078125 5.210938 -0.015625 4.984375 -0.015625 C 4.753906 -0.0234375 4.523438 -0.03125 4.296875 -0.03125 C 4.066406 -0.03125 3.835938 -0.0234375 3.609375 -0.015625 C 3.390625 -0.015625 3.222656 -0.0078125 3.109375 0 L 3.109375 -0.1875 C 3.285156 -0.1875 3.410156 -0.234375 3.484375 -0.328125 C 3.554688 -0.421875 3.59375 -0.59375 3.59375 -0.84375 L 3.59375 -3.703125 C 3.59375 -3.847656 3.578125 -3.976562 3.546875 -4.09375 C 3.515625 -4.207031 3.457031 -4.296875 3.375 -4.359375 C 3.300781 -4.421875 3.1875 -4.453125 3.03125 -4.453125 C 2.863281 -4.453125 2.710938 -4.40625 2.578125 -4.3125 C 2.441406 -4.226562 2.332031 -4.101562 2.25 -3.9375 C 2.164062 -3.78125 2.125 -3.597656 2.125 -3.390625 L 2.125 -0.84375 C 2.125 -0.59375 2.160156 -0.421875 2.234375 -0.328125 C 2.316406 -0.234375 2.445312 -0.1875 2.625 -0.1875 L 2.625 0 C 2.507812 -0.0078125 2.347656 -0.015625 2.140625 -0.015625 C 1.929688 -0.0234375 1.710938 -0.03125 1.484375 -0.03125 C 1.253906 -0.03125 1.015625 -0.0234375 0.765625 -0.015625 C 0.523438 -0.015625 0.34375 -0.0078125 0.21875 0 L 0.21875 -0.1875 C 0.4375 -0.1875 0.585938 -0.234375 0.671875 -0.328125 C 0.765625 -0.421875 0.8125 -0.59375 0.8125 -0.84375 L 0.8125 -3.734375 C 0.8125 -4.003906 0.769531 -4.207031 0.6875 -4.34375 C 0.601562 -4.476562 0.445312 -4.546875 0.21875 -4.546875 L 0.21875 -4.734375 C 0.414062 -4.710938 0.601562 -4.703125 0.78125 -4.703125 C 1.039062 -4.703125 1.28125 -4.710938 1.5 -4.734375 C 1.726562 -4.753906 1.9375 -4.785156 2.125 -4.828125 L 2.125 -4.015625 C 2.28125 -4.328125 2.488281 -4.546875 2.75 -4.671875 C 3.007812 -4.796875 3.300781 -4.859375 3.625 -4.859375 Z M 3.625 -4.859375 "/></g></g></g><g fill="#000000" fill-opacity="1"><g transform="translate(79.465169, 67.772455)"><g><path d="M 2.09375 -7.171875 L 2.09375 -0.84375 C 2.09375 -0.59375 2.132812 -0.421875 2.21875 -0.328125 C 2.3125 -0.234375 2.460938 -0.1875 2.671875 -0.1875 L 2.671875 0 C 2.554688 -0.0078125 2.378906 -0.015625 2.140625 -0.015625 C 1.910156 -0.0234375 1.679688 -0.03125 1.453125 -0.03125 C 1.210938 -0.03125 0.96875 -0.0234375 0.71875 -0.015625 C 0.476562 -0.015625 0.300781 -0.0078125 0.1875 0 L 0.1875 -0.1875 C 0.394531 -0.1875 0.539062 -0.234375 0.625 -0.328125 C 0.71875 -0.421875 0.765625 -0.59375 0.765625 -0.84375 L 0.765625 -6.078125 C 0.765625 -6.347656 0.722656 -6.546875 0.640625 -6.671875 C 0.554688 -6.804688 0.40625 -6.875 0.1875 -6.875 L 0.1875 -7.0625 C 0.375 -7.050781 0.5625 -7.046875 0.75 -7.046875 C 1 -7.046875 1.234375 -7.054688 1.453125 -7.078125 C 1.679688 -7.097656 1.894531 -7.128906 2.09375 -7.171875 Z M 2.09375 -7.171875 "/></g></g></g><g fill="#000000" fill-opacity="1"><g transform="translate(83.906899, 67.772455)"><g><path d="M 2.578125 -4.859375 C 3.023438 -4.859375 3.414062 -4.773438 3.75 -4.609375 C 4.082031 -4.453125 4.34375 -4.1875 4.53125 -3.8125 C 4.726562 -3.445312 4.828125 -2.960938 4.828125 -2.359375 C 4.828125 -1.753906 4.726562 -1.269531 4.53125 -0.90625 C 4.34375 -0.539062 4.082031 -0.273438 3.75 -0.109375 C 3.414062 0.046875 3.023438 0.125 2.578125 0.125 C 2.148438 0.125 1.765625 0.046875 1.421875 -0.109375 C 1.085938 -0.273438 0.820312 -0.539062 0.625 -0.90625 C 0.4375 -1.269531 0.34375 -1.753906 0.34375 -2.359375 C 0.34375 -2.960938 0.4375 -3.445312 0.625 -3.8125 C 0.820312 -4.1875 1.085938 -4.453125 1.421875 -4.609375 C 1.765625 -4.773438 2.148438 -4.859375 2.578125 -4.859375 Z M 2.578125 -4.671875 C 2.335938 -4.671875 2.132812 -4.488281 1.96875 -4.125 C 1.800781 -3.769531 1.71875 -3.179688 1.71875 -2.359375 C 1.71875 -1.546875 1.800781 -0.957031 1.96875 -0.59375 C 2.132812 -0.238281 2.335938 -0.0625 2.578125 -0.0625 C 2.828125 -0.0625 3.03125 -0.238281 3.1875 -0.59375 C 3.351562 -0.957031 3.4375 -1.546875 3.4375 -2.359375 C 3.4375 -3.179688 3.351562 -3.769531 3.1875 -4.125 C 3.03125 -4.488281 2.828125 -4.671875 2.578125 -4.671875 Z M 2.578125 -4.671875 "/></g></g></g><g fill="#000000" fill-opacity="1"><g transform="translate(90.673338, 67.772455)"><g><path d="M 2.59375 -4.859375 C 2.832031 -4.859375 3.050781 -4.832031 3.25 -4.78125 C 3.445312 -4.726562 3.613281 -4.664062 3.75 -4.59375 C 3.90625 -4.488281 4.023438 -4.363281 4.109375 -4.21875 C 4.203125 -4.082031 4.25 -3.921875 4.25 -3.734375 C 4.25 -3.515625 4.179688 -3.335938 4.046875 -3.203125 C 3.910156 -3.066406 3.738281 -3 3.53125 -3 C 3.3125 -3 3.132812 -3.054688 3 -3.171875 C 2.875 -3.296875 2.8125 -3.460938 2.8125 -3.671875 C 2.8125 -3.867188 2.875 -4.03125 3 -4.15625 C 3.125 -4.289062 3.265625 -4.378906 3.421875 -4.421875 C 3.367188 -4.484375 3.296875 -4.535156 3.203125 -4.578125 C 3.109375 -4.617188 3 -4.640625 2.875 -4.640625 C 2.6875 -4.640625 2.519531 -4.582031 2.375 -4.46875 C 2.226562 -4.363281 2.109375 -4.210938 2.015625 -4.015625 C 1.921875 -3.828125 1.847656 -3.597656 1.796875 -3.328125 C 1.742188 -3.066406 1.71875 -2.78125 1.71875 -2.46875 C 1.71875 -2 1.773438 -1.628906 1.890625 -1.359375 C 2.003906 -1.097656 2.15625 -0.910156 2.34375 -0.796875 C 2.53125 -0.679688 2.726562 -0.625 2.9375 -0.625 C 3.050781 -0.625 3.175781 -0.640625 3.3125 -0.671875 C 3.445312 -0.710938 3.585938 -0.789062 3.734375 -0.90625 C 3.878906 -1.019531 4.007812 -1.175781 4.125 -1.375 L 4.28125 -1.3125 C 4.21875 -1.09375 4.109375 -0.867188 3.953125 -0.640625 C 3.804688 -0.410156 3.609375 -0.222656 3.359375 -0.078125 C 3.117188 0.0546875 2.820312 0.125 2.46875 0.125 C 2.070312 0.125 1.710938 0.0390625 1.390625 -0.125 C 1.066406 -0.300781 0.804688 -0.570312 0.609375 -0.9375 C 0.421875 -1.300781 0.328125 -1.769531 0.328125 -2.34375 C 0.328125 -2.894531 0.425781 -3.359375 0.625 -3.734375 C 0.820312 -4.109375 1.09375 -4.390625 1.4375 -4.578125 C 1.78125 -4.765625 2.164062 -4.859375 2.59375 -4.859375 Z M 2.59375 -4.859375 "/></g></g></g><g fill="#000000" fill-opacity="1"><g transform="translate(96.808257, 67.772455)"><g><path d="M 2.078125 -7.171875 L 2.078125 -0.84375 C 2.078125 -0.59375 2.117188 -0.421875 2.203125 -0.328125 C 2.285156 -0.234375 2.425781 -0.1875 2.625 -0.1875 L 2.625 0 C 2.507812 -0.0078125 2.335938 -0.015625 2.109375 -0.015625 C 1.890625 -0.0234375 1.664062 -0.03125 1.4375 -0.03125 C 1.195312 -0.03125 0.957031 -0.0234375 0.71875 -0.015625 C 0.476562 -0.015625 0.296875 -0.0078125 0.171875 0 L 0.171875 -0.1875 C 0.390625 -0.1875 0.539062 -0.234375 0.625 -0.328125 C 0.71875 -0.421875 0.765625 -0.59375 0.765625 -0.84375 L 0.765625 -6.078125 C 0.765625 -6.347656 0.722656 -6.546875 0.640625 -6.671875 C 0.554688 -6.804688 0.398438 -6.875 0.171875 -6.875 L 0.171875 -7.0625 C 0.367188 -7.050781 0.554688 -7.046875 0.734375 -7.046875 C 0.984375 -7.046875 1.222656 -7.054688 1.453125 -7.078125 C 1.679688 -7.097656 1.890625 -7.128906 2.078125 -7.171875 Z M 5.0625 -4.734375 L 5.0625 -4.546875 C 4.875 -4.515625 4.6875 -4.4375 4.5 -4.3125 C 4.3125 -4.1875 4.117188 -4.03125 3.921875 -3.84375 L 3.21875 -3.109375 L 3.3125 -3.28125 L 4.875 -0.671875 C 4.9375 -0.554688 5.003906 -0.457031 5.078125 -0.375 C 5.148438 -0.289062 5.238281 -0.226562 5.34375 -0.1875 L 5.34375 0 C 5.25 -0.0078125 5.109375 -0.015625 4.921875 -0.015625 C 4.742188 -0.0234375 4.566406 -0.03125 4.390625 -0.03125 C 4.160156 -0.03125 3.929688 -0.0234375 3.703125 -0.015625 C 3.484375 -0.015625 3.316406 -0.0078125 3.203125 0 L 3.203125 -0.1875 C 3.328125 -0.1875 3.410156 -0.210938 3.453125 -0.265625 C 3.492188 -0.328125 3.488281 -0.40625 3.4375 -0.5 L 2.53125 -2.140625 C 2.457031 -2.253906 2.382812 -2.328125 2.3125 -2.359375 C 2.238281 -2.398438 2.144531 -2.421875 2.03125 -2.421875 L 2.03125 -2.59375 C 2.15625 -2.613281 2.265625 -2.632812 2.359375 -2.65625 C 2.460938 -2.6875 2.550781 -2.75 2.625 -2.84375 L 3.328125 -3.515625 C 3.535156 -3.710938 3.640625 -3.882812 3.640625 -4.03125 C 3.640625 -4.1875 3.570312 -4.3125 3.4375 -4.40625 C 3.300781 -4.5 3.128906 -4.546875 2.921875 -4.546875 L 2.921875 -4.734375 C 3.085938 -4.722656 3.269531 -4.710938 3.46875 -4.703125 C 3.675781 -4.703125 3.847656 -4.703125 3.984375 -4.703125 C 4.109375 -4.703125 4.238281 -4.703125 4.375 -4.703125 C 4.519531 -4.710938 4.648438 -4.71875 4.765625 -4.71875 C 4.890625 -4.71875 4.988281 -4.722656 5.0625 -4.734375 Z M 5.0625 -4.734375 "/></g></g></g><g fill="#000000" fill-opacity="1"><g transform="translate(103.757741, 67.772455)"><g><path d="M 1.40625 -7.09375 C 1.664062 -7.09375 1.867188 -7.03125 2.015625 -6.90625 C 2.160156 -6.78125 2.234375 -6.609375 2.234375 -6.390625 C 2.234375 -6.171875 2.160156 -6 2.015625 -5.875 C 1.867188 -5.75 1.664062 -5.6875 1.40625 -5.6875 C 1.144531 -5.6875 0.941406 -5.75 0.796875 -5.875 C 0.648438 -6 0.578125 -6.171875 0.578125 -6.390625 C 0.578125 -6.609375 0.648438 -6.78125 0.796875 -6.90625 C 0.941406 -7.03125 1.144531 -7.09375 1.40625 -7.09375 Z M 2.125 -4.828125 L 2.125 -0.84375 C 2.125 -0.59375 2.164062 -0.421875 2.25 -0.328125 C 2.34375 -0.234375 2.492188 -0.1875 2.703125 -0.1875 L 2.703125 0 C 2.597656 -0.0078125 2.425781 -0.015625 2.1875 -0.015625 C 1.957031 -0.0234375 1.726562 -0.03125 1.5 -0.03125 C 1.257812 -0.03125 1.015625 -0.0234375 0.765625 -0.015625 C 0.523438 -0.015625 0.34375 -0.0078125 0.21875 0 L 0.21875 -0.1875 C 0.4375 -0.1875 0.585938 -0.234375 0.671875 -0.328125 C 0.765625 -0.421875 0.8125 -0.59375 0.8125 -0.84375 L 0.8125 -3.734375 C 0.8125 -4.003906 0.769531 -4.207031 0.6875 -4.34375 C 0.601562 -4.476562 0.445312 -4.546875 0.21875 -4.546875 L 0.21875 -4.734375 C 0.414062 -4.710938 0.601562 -4.703125 0.78125 -4.703125 C 1.039062 -4.703125 1.28125 -4.710938 1.5 -4.734375 C 1.726562 -4.753906 1.9375 -4.785156 2.125 -4.828125 Z M 2.125 -4.828125 "/></g></g></g><g fill="#000000" fill-opacity="1"><g transform="translate(108.236075, 67.772455)"><g><path d="M 3.625 -4.859375 C 3.882812 -4.859375 4.09375 -4.828125 4.25 -4.765625 C 4.414062 -4.703125 4.546875 -4.613281 4.640625 -4.5 C 4.734375 -4.382812 4.800781 -4.234375 4.84375 -4.046875 C 4.894531 -3.867188 4.921875 -3.625 4.921875 -3.3125 L 4.921875 -0.84375 C 4.921875 -0.59375 4.960938 -0.421875 5.046875 -0.328125 C 5.140625 -0.234375 5.289062 -0.1875 5.5 -0.1875 L 5.5 0 C 5.382812 -0.0078125 5.210938 -0.015625 4.984375 -0.015625 C 4.753906 -0.0234375 4.523438 -0.03125 4.296875 -0.03125 C 4.066406 -0.03125 3.835938 -0.0234375 3.609375 -0.015625 C 3.390625 -0.015625 3.222656 -0.0078125 3.109375 0 L 3.109375 -0.1875 C 3.285156 -0.1875 3.410156 -0.234375 3.484375 -0.328125 C 3.554688 -0.421875 3.59375 -0.59375 3.59375 -0.84375 L 3.59375 -3.703125 C 3.59375 -3.847656 3.578125 -3.976562 3.546875 -4.09375 C 3.515625 -4.207031 3.457031 -4.296875 3.375 -4.359375 C 3.300781 -4.421875 3.1875 -4.453125 3.03125 -4.453125 C 2.863281 -4.453125 2.710938 -4.40625 2.578125 -4.3125 C 2.441406 -4.226562 2.332031 -4.101562 2.25 -3.9375 C 2.164062 -3.78125 2.125 -3.597656 2.125 -3.390625 L 2.125 -0.84375 C 2.125 -0.59375 2.160156 -0.421875 2.234375 -0.328125 C 2.316406 -0.234375 2.445312 -0.1875 2.625 -0.1875 L 2.625 0 C 2.507812 -0.0078125 2.347656 -0.015625 2.140625 -0.015625 C 1.929688 -0.0234375 1.710938 -0.03125 1.484375 -0.03125 C 1.253906 -0.03125 1.015625 -0.0234375 0.765625 -0.015625 C 0.523438 -0.015625 0.34375 -0.0078125 0.21875 0 L 0.21875 -0.1875 C 0.4375 -0.1875 0.585938 -0.234375 0.671875 -0.328125 C 0.765625 -0.421875 0.8125 -0.59375 0.8125 -0.84375 L 0.8125 -3.734375 C 0.8125 -4.003906 0.769531 -4.207031 0.6875 -4.34375 C 0.601562 -4.476562 0.445312 -4.546875 0.21875 -4.546875 L 0.21875 -4.734375 C 0.414062 -4.710938 0.601562 -4.703125 0.78125 -4.703125 C 1.039062 -4.703125 1.28125 -4.710938 1.5 -4.734375 C 1.726562 -4.753906 1.9375 -4.785156 2.125 -4.828125 L 2.125 -4.015625 C 2.28125 -4.328125 2.488281 -4.546875 2.75 -4.671875 C 3.007812 -4.796875 3.300781 -4.859375 3.625 -4.859375 Z M 3.625 -4.859375 "/></g></g></g><g fill="#000000" fill-opacity="1"><g transform="translate(115.450977, 67.772455)"><g><path d="M 2 1.71875 C 1.613281 1.71875 1.273438 1.6875 0.984375 1.625 C 0.691406 1.5625 0.457031 1.460938 0.28125 1.328125 C 0.113281 1.203125 0.03125 1.039062 0.03125 0.84375 C 0.03125 0.65625 0.113281 0.488281 0.28125 0.34375 C 0.457031 0.195312 0.710938 0.078125 1.046875 -0.015625 L 1.140625 0.140625 C 1.023438 0.234375 0.941406 0.332031 0.890625 0.4375 C 0.835938 0.539062 0.8125 0.648438 0.8125 0.765625 C 0.8125 1.023438 0.925781 1.222656 1.15625 1.359375 C 1.394531 1.492188 1.710938 1.5625 2.109375 1.5625 C 2.390625 1.5625 2.632812 1.523438 2.84375 1.453125 C 3.0625 1.378906 3.234375 1.269531 3.359375 1.125 C 3.484375 0.976562 3.546875 0.800781 3.546875 0.59375 C 3.546875 0.40625 3.476562 0.25 3.34375 0.125 C 3.21875 0 2.953125 -0.0625 2.546875 -0.0625 L 1.984375 -0.0625 C 1.734375 -0.0625 1.515625 -0.0859375 1.328125 -0.140625 C 1.140625 -0.203125 0.992188 -0.289062 0.890625 -0.40625 C 0.785156 -0.53125 0.734375 -0.679688 0.734375 -0.859375 C 0.734375 -1.117188 0.832031 -1.34375 1.03125 -1.53125 C 1.238281 -1.726562 1.539062 -1.914062 1.9375 -2.09375 L 2.03125 -2.015625 C 1.90625 -1.941406 1.789062 -1.863281 1.6875 -1.78125 C 1.59375 -1.695312 1.546875 -1.59375 1.546875 -1.46875 C 1.546875 -1.269531 1.664062 -1.171875 1.90625 -1.171875 L 2.90625 -1.171875 C 3.25 -1.171875 3.550781 -1.128906 3.8125 -1.046875 C 4.082031 -0.972656 4.289062 -0.84375 4.4375 -0.65625 C 4.59375 -0.476562 4.671875 -0.25 4.671875 0.03125 C 4.671875 0.332031 4.578125 0.609375 4.390625 0.859375 C 4.203125 1.117188 3.90625 1.328125 3.5 1.484375 C 3.101562 1.640625 2.601562 1.71875 2 1.71875 Z M 2.09375 -1.953125 C 1.738281 -1.953125 1.421875 -2.003906 1.140625 -2.109375 C 0.867188 -2.210938 0.65625 -2.367188 0.5 -2.578125 C 0.34375 -2.796875 0.265625 -3.070312 0.265625 -3.40625 C 0.265625 -3.738281 0.34375 -4.015625 0.5 -4.234375 C 0.65625 -4.453125 0.867188 -4.609375 1.140625 -4.703125 C 1.421875 -4.804688 1.738281 -4.859375 2.09375 -4.859375 C 2.4375 -4.859375 2.742188 -4.804688 3.015625 -4.703125 C 3.296875 -4.609375 3.515625 -4.453125 3.671875 -4.234375 C 3.828125 -4.015625 3.90625 -3.738281 3.90625 -3.40625 C 3.90625 -3.070312 3.828125 -2.796875 3.671875 -2.578125 C 3.515625 -2.367188 3.296875 -2.210938 3.015625 -2.109375 C 2.742188 -2.003906 2.4375 -1.953125 2.09375 -1.953125 Z M 2.09375 -2.109375 C 2.25 -2.109375 2.375 -2.203125 2.46875 -2.390625 C 2.5625 -2.578125 2.609375 -2.914062 2.609375 -3.40625 C 2.609375 -3.894531 2.5625 -4.234375 2.46875 -4.421875 C 2.375 -4.609375 2.25 -4.703125 2.09375 -4.703125 C 1.925781 -4.703125 1.796875 -4.609375 1.703125 -4.421875 C 1.609375 -4.234375 1.5625 -3.894531 1.5625 -3.40625 C 1.5625 -2.914062 1.609375 -2.578125 1.703125 -2.390625 C 1.796875 -2.203125 1.925781 -2.109375 2.09375 -2.109375 Z M 3.515625 -4.078125 L 3.328125 -4.140625 C 3.421875 -4.378906 3.566406 -4.578125 3.765625 -4.734375 C 3.972656 -4.890625 4.195312 -4.96875 4.4375 -4.96875 C 4.632812 -4.96875 4.78125 -4.914062 4.875 -4.8125 C 4.976562 -4.707031 5.03125 -4.566406 5.03125 -4.390625 C 5.03125 -4.210938 4.984375 -4.078125 4.890625 -3.984375 C 4.796875 -3.898438 4.6875 -3.859375 4.5625 -3.859375 C 4.457031 -3.859375 4.359375 -3.894531 4.265625 -3.96875 C 4.179688 -4.039062 4.132812 -4.148438 4.125 -4.296875 C 4.113281 -4.441406 4.164062 -4.632812 4.28125 -4.875 L 4.34375 -4.828125 C 4.101562 -4.742188 3.925781 -4.644531 3.8125 -4.53125 C 3.695312 -4.414062 3.597656 -4.265625 3.515625 -4.078125 Z M 3.515625 -4.078125 "/></g></g></g><g fill="#000000" fill-opacity="1"><g transform="translate(122.107579, 67.772455)"><g/></g></g><g fill="#000000" fill-opacity="1"><g transform="translate(125.835416, 67.772455)"><g><path d="M 2.078125 -6.234375 L 2.078125 -4.734375 L 3.15625 -4.734375 L 3.15625 -4.546875 L 2.078125 -4.546875 L 2.078125 -0.84375 C 2.078125 -0.664062 2.109375 -0.535156 2.171875 -0.453125 C 2.242188 -0.378906 2.347656 -0.34375 2.484375 -0.34375 C 2.585938 -0.34375 2.691406 -0.382812 2.796875 -0.46875 C 2.910156 -0.550781 3.015625 -0.691406 3.109375 -0.890625 L 3.265625 -0.8125 C 3.160156 -0.539062 3.007812 -0.316406 2.8125 -0.140625 C 2.613281 0.0351562 2.34375 0.125 2 0.125 C 1.800781 0.125 1.625 0.0976562 1.46875 0.046875 C 1.320312 -0.00390625 1.195312 -0.0820312 1.09375 -0.1875 C 0.957031 -0.320312 0.867188 -0.488281 0.828125 -0.6875 C 0.785156 -0.882812 0.765625 -1.140625 0.765625 -1.453125 L 0.765625 -4.546875 L -0.015625 -4.546875 L -0.015625 -4.734375 L 0.765625 -4.734375 L 0.765625 -5.9375 C 1.015625 -5.9375 1.25 -5.957031 1.46875 -6 C 1.6875 -6.050781 1.890625 -6.128906 2.078125 -6.234375 Z M 2.078125 -6.234375 "/></g></g></g><g fill="#000000" fill-opacity="1"><g transform="translate(130.652399, 67.772455)"><g><path d="M 2.078125 -7.15625 L 2.078125 -4.015625 C 2.234375 -4.328125 2.4375 -4.546875 2.6875 -4.671875 C 2.945312 -4.796875 3.242188 -4.859375 3.578125 -4.859375 C 3.835938 -4.859375 4.046875 -4.828125 4.203125 -4.765625 C 4.359375 -4.703125 4.484375 -4.613281 4.578125 -4.5 C 4.679688 -4.382812 4.753906 -4.234375 4.796875 -4.046875 C 4.847656 -3.867188 4.875 -3.625 4.875 -3.3125 L 4.875 -0.84375 C 4.875 -0.59375 4.914062 -0.421875 5 -0.328125 C 5.09375 -0.234375 5.242188 -0.1875 5.453125 -0.1875 L 5.453125 0 C 5.335938 -0.0078125 5.160156 -0.015625 4.921875 -0.015625 C 4.691406 -0.0234375 4.46875 -0.03125 4.25 -0.03125 C 4.007812 -0.03125 3.773438 -0.0234375 3.546875 -0.015625 C 3.328125 -0.015625 3.164062 -0.0078125 3.0625 0 L 3.0625 -0.1875 C 3.238281 -0.1875 3.363281 -0.234375 3.4375 -0.328125 C 3.507812 -0.421875 3.546875 -0.59375 3.546875 -0.84375 L 3.546875 -3.703125 C 3.546875 -3.847656 3.53125 -3.976562 3.5 -4.09375 C 3.476562 -4.207031 3.425781 -4.296875 3.34375 -4.359375 C 3.257812 -4.421875 3.140625 -4.453125 2.984375 -4.453125 C 2.816406 -4.453125 2.664062 -4.40625 2.53125 -4.3125 C 2.394531 -4.226562 2.285156 -4.109375 2.203125 -3.953125 C 2.117188 -3.796875 2.078125 -3.613281 2.078125 -3.40625 L 2.078125 -0.84375 C 2.078125 -0.59375 2.113281 -0.421875 2.1875 -0.328125 C 2.257812 -0.234375 2.390625 -0.1875 2.578125 -0.1875 L 2.578125 0 C 2.460938 -0.0078125 2.296875 -0.015625 2.078125 -0.015625 C 1.867188 -0.0234375 1.65625 -0.03125 1.4375 -0.03125 C 1.195312 -0.03125 0.957031 -0.0234375 0.71875 -0.015625 C 0.476562 -0.015625 0.296875 -0.0078125 0.171875 0 L 0.171875 -0.1875 C 0.390625 -0.1875 0.539062 -0.234375 0.625 -0.328125 C 0.71875 -0.421875 0.765625 -0.59375 0.765625 -0.84375 L 0.765625 -6.0625 C 0.765625 -6.332031 0.722656 -6.53125 0.640625 -6.65625 C 0.554688 -6.789062 0.398438 -6.859375 0.171875 -6.859375 L 0.171875 -7.0625 C 0.367188 -7.039062 0.554688 -7.03125 0.734375 -7.03125 C 0.984375 -7.03125 1.222656 -7.039062 1.453125 -7.0625 C 1.679688 -7.082031 1.890625 -7.113281 2.078125 -7.15625 Z M 2.078125 -7.15625 "/></g></g></g><g fill="#000000" fill-opacity="1"><g transform="translate(137.812394, 67.772455)"><g><path d="M 2.578125 -4.859375 C 3.117188 -4.859375 3.539062 -4.695312 3.84375 -4.375 C 4.144531 -4.0625 4.296875 -3.546875 4.296875 -2.828125 L 1.296875 -2.828125 L 1.265625 -3 L 3.15625 -3 C 3.15625 -3.300781 3.132812 -3.578125 3.09375 -3.828125 C 3.050781 -4.085938 2.984375 -4.289062 2.890625 -4.4375 C 2.796875 -4.59375 2.675781 -4.671875 2.53125 -4.671875 C 2.3125 -4.671875 2.128906 -4.535156 1.984375 -4.265625 C 1.835938 -3.992188 1.75 -3.550781 1.71875 -2.9375 L 1.734375 -2.875 C 1.734375 -2.800781 1.726562 -2.722656 1.71875 -2.640625 C 1.71875 -2.566406 1.71875 -2.488281 1.71875 -2.40625 C 1.71875 -1.976562 1.773438 -1.632812 1.890625 -1.375 C 2.015625 -1.113281 2.164062 -0.921875 2.34375 -0.796875 C 2.53125 -0.679688 2.71875 -0.625 2.90625 -0.625 C 3.039062 -0.625 3.175781 -0.640625 3.3125 -0.671875 C 3.445312 -0.710938 3.582031 -0.785156 3.71875 -0.890625 C 3.863281 -1.003906 4 -1.160156 4.125 -1.359375 L 4.28125 -1.296875 C 4.207031 -1.066406 4.09375 -0.84375 3.9375 -0.625 C 3.78125 -0.40625 3.578125 -0.222656 3.328125 -0.078125 C 3.085938 0.0546875 2.796875 0.125 2.453125 0.125 C 2.035156 0.125 1.664062 0.0351562 1.34375 -0.140625 C 1.03125 -0.316406 0.785156 -0.582031 0.609375 -0.9375 C 0.429688 -1.300781 0.34375 -1.757812 0.34375 -2.3125 C 0.34375 -2.882812 0.4375 -3.359375 0.625 -3.734375 C 0.820312 -4.109375 1.085938 -4.390625 1.421875 -4.578125 C 1.765625 -4.765625 2.148438 -4.859375 2.578125 -4.859375 Z M 2.578125 -4.859375 "/></g></g></g><g fill="#000000" fill-opacity="1"><g transform="translate(144.020533, 67.772455)"><g/></g></g><g fill="#000000" fill-opacity="1"><g transform="translate(147.74837, 67.772455)"><g><path d="M 4.640625 -4.734375 L 4.640625 -4.546875 C 4.523438 -4.515625 4.414062 -4.441406 4.3125 -4.328125 C 4.207031 -4.222656 4.109375 -4.035156 4.015625 -3.765625 L 2.671875 0.015625 C 2.578125 0.015625 2.476562 0.015625 2.375 0.015625 C 2.269531 0.015625 2.171875 0.015625 2.078125 0.015625 L 0.453125 -4.03125 C 0.347656 -4.269531 0.25 -4.414062 0.15625 -4.46875 C 0.0625 -4.519531 -0.015625 -4.546875 -0.078125 -4.546875 L -0.078125 -4.734375 C 0.109375 -4.722656 0.304688 -4.710938 0.515625 -4.703125 C 0.734375 -4.691406 0.96875 -4.6875 1.21875 -4.6875 C 1.40625 -4.6875 1.601562 -4.691406 1.8125 -4.703125 C 2.03125 -4.710938 2.226562 -4.722656 2.40625 -4.734375 L 2.40625 -4.546875 C 2.28125 -4.546875 2.164062 -4.535156 2.0625 -4.515625 C 1.957031 -4.503906 1.882812 -4.460938 1.84375 -4.390625 C 1.8125 -4.328125 1.820312 -4.210938 1.875 -4.046875 L 2.953125 -1.203125 L 2.859375 -1.078125 L 3.578125 -3.078125 C 3.691406 -3.410156 3.738281 -3.679688 3.71875 -3.890625 C 3.707031 -4.109375 3.640625 -4.269531 3.515625 -4.375 C 3.398438 -4.476562 3.25 -4.535156 3.0625 -4.546875 L 3.0625 -4.734375 C 3.15625 -4.722656 3.253906 -4.71875 3.359375 -4.71875 C 3.460938 -4.71875 3.5625 -4.710938 3.65625 -4.703125 C 3.757812 -4.703125 3.851562 -4.703125 3.9375 -4.703125 C 4.0625 -4.703125 4.1875 -4.703125 4.3125 -4.703125 C 4.445312 -4.710938 4.554688 -4.722656 4.640625 -4.734375 Z M 4.640625 -4.734375 "/></g></g></g><g fill="#000000" fill-opacity="1"><g transform="translate(153.993131, 67.772455)"><g><path d="M 1.484375 0.0625 C 1.210938 0.0625 0.984375 0.0078125 0.796875 -0.09375 C 0.609375 -0.195312 0.472656 -0.332031 0.390625 -0.5 C 0.304688 -0.675781 0.265625 -0.867188 0.265625 -1.078125 C 0.265625 -1.335938 0.320312 -1.550781 0.4375 -1.71875 C 0.5625 -1.882812 0.71875 -2.019531 0.90625 -2.125 C 1.09375 -2.226562 1.289062 -2.3125 1.5 -2.375 C 1.71875 -2.445312 1.921875 -2.515625 2.109375 -2.578125 C 2.304688 -2.640625 2.460938 -2.710938 2.578125 -2.796875 C 2.691406 -2.890625 2.75 -3.007812 2.75 -3.15625 L 2.75 -3.859375 C 2.75 -4.023438 2.722656 -4.171875 2.671875 -4.296875 C 2.617188 -4.421875 2.539062 -4.515625 2.4375 -4.578125 C 2.332031 -4.640625 2.195312 -4.671875 2.03125 -4.671875 C 1.90625 -4.671875 1.78125 -4.65625 1.65625 -4.625 C 1.53125 -4.59375 1.429688 -4.535156 1.359375 -4.453125 C 1.523438 -4.398438 1.65625 -4.304688 1.75 -4.171875 C 1.84375 -4.046875 1.890625 -3.90625 1.890625 -3.75 C 1.890625 -3.539062 1.816406 -3.375 1.671875 -3.25 C 1.535156 -3.132812 1.367188 -3.078125 1.171875 -3.078125 C 0.953125 -3.078125 0.785156 -3.144531 0.671875 -3.28125 C 0.554688 -3.414062 0.5 -3.582031 0.5 -3.78125 C 0.5 -3.957031 0.539062 -4.101562 0.625 -4.21875 C 0.71875 -4.332031 0.84375 -4.441406 1 -4.546875 C 1.175781 -4.648438 1.382812 -4.726562 1.625 -4.78125 C 1.863281 -4.832031 2.125 -4.859375 2.40625 -4.859375 C 2.6875 -4.859375 2.9375 -4.828125 3.15625 -4.765625 C 3.382812 -4.710938 3.578125 -4.609375 3.734375 -4.453125 C 3.878906 -4.316406 3.972656 -4.144531 4.015625 -3.9375 C 4.054688 -3.738281 4.078125 -3.484375 4.078125 -3.171875 L 4.078125 -0.671875 C 4.078125 -0.523438 4.09375 -0.421875 4.125 -0.359375 C 4.15625 -0.304688 4.207031 -0.28125 4.28125 -0.28125 C 4.332031 -0.28125 4.382812 -0.289062 4.4375 -0.3125 C 4.488281 -0.34375 4.546875 -0.382812 4.609375 -0.4375 L 4.703125 -0.28125 C 4.566406 -0.164062 4.414062 -0.078125 4.25 -0.015625 C 4.082031 0.0351562 3.894531 0.0625 3.6875 0.0625 C 3.457031 0.0625 3.273438 0.03125 3.140625 -0.03125 C 3.015625 -0.09375 2.921875 -0.175781 2.859375 -0.28125 C 2.804688 -0.394531 2.78125 -0.523438 2.78125 -0.671875 C 2.625 -0.441406 2.441406 -0.257812 2.234375 -0.125 C 2.035156 0 1.785156 0.0625 1.484375 0.0625 Z M 2.140625 -0.515625 C 2.253906 -0.515625 2.363281 -0.546875 2.46875 -0.609375 C 2.570312 -0.671875 2.664062 -0.765625 2.75 -0.890625 L 2.75 -2.78125 C 2.695312 -2.6875 2.617188 -2.601562 2.515625 -2.53125 C 2.421875 -2.457031 2.316406 -2.378906 2.203125 -2.296875 C 2.097656 -2.222656 1.992188 -2.140625 1.890625 -2.046875 C 1.796875 -1.953125 1.71875 -1.835938 1.65625 -1.703125 C 1.59375 -1.578125 1.5625 -1.421875 1.5625 -1.234375 C 1.5625 -0.992188 1.613281 -0.8125 1.71875 -0.6875 C 1.820312 -0.570312 1.960938 -0.515625 2.140625 -0.515625 Z M 2.140625 -0.515625 "/></g></g></g><g fill="#000000" fill-opacity="1"><g transform="translate(160.329409, 67.772455)"><g><path d="M 2.09375 -7.171875 L 2.09375 -0.84375 C 2.09375 -0.59375 2.132812 -0.421875 2.21875 -0.328125 C 2.3125 -0.234375 2.460938 -0.1875 2.671875 -0.1875 L 2.671875 0 C 2.554688 -0.0078125 2.378906 -0.015625 2.140625 -0.015625 C 1.910156 -0.0234375 1.679688 -0.03125 1.453125 -0.03125 C 1.210938 -0.03125 0.96875 -0.0234375 0.71875 -0.015625 C 0.476562 -0.015625 0.300781 -0.0078125 0.1875 0 L 0.1875 -0.1875 C 0.394531 -0.1875 0.539062 -0.234375 0.625 -0.328125 C 0.71875 -0.421875 0.765625 -0.59375 0.765625 -0.84375 L 0.765625 -6.078125 C 0.765625 -6.347656 0.722656 -6.546875 0.640625 -6.671875 C 0.554688 -6.804688 0.40625 -6.875 0.1875 -6.875 L 0.1875 -7.0625 C 0.375 -7.050781 0.5625 -7.046875 0.75 -7.046875 C 1 -7.046875 1.234375 -7.054688 1.453125 -7.078125 C 1.679688 -7.097656 1.894531 -7.128906 2.09375 -7.171875 Z M 2.09375 -7.171875 "/></g></g></g><g fill="#000000" fill-opacity="1"><g transform="translate(164.771137, 67.772455)"><g><path d="M 4.78125 -4.828125 L 4.78125 -1 C 4.78125 -0.726562 4.820312 -0.523438 4.90625 -0.390625 C 4.988281 -0.253906 5.140625 -0.1875 5.359375 -0.1875 L 5.359375 0 C 5.171875 -0.0195312 4.984375 -0.03125 4.796875 -0.03125 C 4.535156 -0.03125 4.296875 -0.0195312 4.078125 0 C 3.859375 0.0195312 3.65625 0.0507812 3.46875 0.09375 L 3.46875 -0.71875 C 3.3125 -0.414062 3.101562 -0.195312 2.84375 -0.0625 C 2.59375 0.0625 2.304688 0.125 1.984375 0.125 C 1.734375 0.125 1.523438 0.0859375 1.359375 0.015625 C 1.203125 -0.046875 1.078125 -0.128906 0.984375 -0.234375 C 0.878906 -0.347656 0.804688 -0.5 0.765625 -0.6875 C 0.722656 -0.875 0.703125 -1.117188 0.703125 -1.421875 L 0.703125 -3.734375 C 0.703125 -4.003906 0.660156 -4.207031 0.578125 -4.34375 C 0.492188 -4.476562 0.34375 -4.546875 0.125 -4.546875 L 0.125 -4.734375 C 0.3125 -4.710938 0.5 -4.703125 0.6875 -4.703125 C 0.945312 -4.703125 1.1875 -4.710938 1.40625 -4.734375 C 1.625 -4.753906 1.832031 -4.785156 2.03125 -4.828125 L 2.03125 -1.046875 C 2.03125 -0.890625 2.039062 -0.753906 2.0625 -0.640625 C 2.09375 -0.523438 2.144531 -0.4375 2.21875 -0.375 C 2.300781 -0.3125 2.421875 -0.28125 2.578125 -0.28125 C 2.734375 -0.28125 2.878906 -0.320312 3.015625 -0.40625 C 3.148438 -0.5 3.257812 -0.625 3.34375 -0.78125 C 3.425781 -0.945312 3.46875 -1.132812 3.46875 -1.34375 L 3.46875 -3.734375 C 3.46875 -4.003906 3.425781 -4.207031 3.34375 -4.34375 C 3.257812 -4.476562 3.101562 -4.546875 2.875 -4.546875 L 2.875 -4.734375 C 3.070312 -4.710938 3.257812 -4.703125 3.4375 -4.703125 C 3.695312 -4.703125 3.9375 -4.710938 4.15625 -4.734375 C 4.382812 -4.753906 4.59375 -4.785156 4.78125 -4.828125 Z M 4.78125 -4.828125 "/></g></g></g><g fill="#000000" fill-opacity="1"><g transform="translate(171.912819, 67.772455)"><g><path d="M 2.578125 -4.859375 C 3.117188 -4.859375 3.539062 -4.695312 3.84375 -4.375 C 4.144531 -4.0625 4.296875 -3.546875 4.296875 -2.828125 L 1.296875 -2.828125 L 1.265625 -3 L 3.15625 -3 C 3.15625 -3.300781 3.132812 -3.578125 3.09375 -3.828125 C 3.050781 -4.085938 2.984375 -4.289062 2.890625 -4.4375 C 2.796875 -4.59375 2.675781 -4.671875 2.53125 -4.671875 C 2.3125 -4.671875 2.128906 -4.535156 1.984375 -4.265625 C 1.835938 -3.992188 1.75 -3.550781 1.71875 -2.9375 L 1.734375 -2.875 C 1.734375 -2.800781 1.726562 -2.722656 1.71875 -2.640625 C 1.71875 -2.566406 1.71875 -2.488281 1.71875 -2.40625 C 1.71875 -1.976562 1.773438 -1.632812 1.890625 -1.375 C 2.015625 -1.113281 2.164062 -0.921875 2.34375 -0.796875 C 2.53125 -0.679688 2.71875 -0.625 2.90625 -0.625 C 3.039062 -0.625 3.175781 -0.640625 3.3125 -0.671875 C 3.445312 -0.710938 3.582031 -0.785156 3.71875 -0.890625 C 3.863281 -1.003906 4 -1.160156 4.125 -1.359375 L 4.28125 -1.296875 C 4.207031 -1.066406 4.09375 -0.84375 3.9375 -0.625 C 3.78125 -0.40625 3.578125 -0.222656 3.328125 -0.078125 C 3.085938 0.0546875 2.796875 0.125 2.453125 0.125 C 2.035156 0.125 1.664062 0.0351562 1.34375 -0.140625 C 1.03125 -0.316406 0.785156 -0.582031 0.609375 -0.9375 C 0.429688 -1.300781 0.34375 -1.757812 0.34375 -2.3125 C 0.34375 -2.882812 0.4375 -3.359375 0.625 -3.734375 C 0.820312 -4.109375 1.085938 -4.390625 1.421875 -4.578125 C 1.765625 -4.765625 2.148438 -4.859375 2.578125 -4.859375 Z M 2.578125 -4.859375 "/></g></g></g><g fill="#000000" fill-opacity="1"><g transform="translate(178.120958, 67.772455)"><g/></g></g><g fill="#000000" fill-opacity="1"><g transform="translate(181.848795, 67.772455)"><g><path d="M 1.40625 -7.09375 C 1.664062 -7.09375 1.867188 -7.03125 2.015625 -6.90625 C 2.160156 -6.78125 2.234375 -6.609375 2.234375 -6.390625 C 2.234375 -6.171875 2.160156 -6 2.015625 -5.875 C 1.867188 -5.75 1.664062 -5.6875 1.40625 -5.6875 C 1.144531 -5.6875 0.941406 -5.75 0.796875 -5.875 C 0.648438 -6 0.578125 -6.171875 0.578125 -6.390625 C 0.578125 -6.609375 0.648438 -6.78125 0.796875 -6.90625 C 0.941406 -7.03125 1.144531 -7.09375 1.40625 -7.09375 Z M 2.125 -4.828125 L 2.125 -0.84375 C 2.125 -0.59375 2.164062 -0.421875 2.25 -0.328125 C 2.34375 -0.234375 2.492188 -0.1875 2.703125 -0.1875 L 2.703125 0 C 2.597656 -0.0078125 2.425781 -0.015625 2.1875 -0.015625 C 1.957031 -0.0234375 1.726562 -0.03125 1.5 -0.03125 C 1.257812 -0.03125 1.015625 -0.0234375 0.765625 -0.015625 C 0.523438 -0.015625 0.34375 -0.0078125 0.21875 0 L 0.21875 -0.1875 C 0.4375 -0.1875 0.585938 -0.234375 0.671875 -0.328125 C 0.765625 -0.421875 0.8125 -0.59375 0.8125 -0.84375 L 0.8125 -3.734375 C 0.8125 -4.003906 0.769531 -4.207031 0.6875 -4.34375 C 0.601562 -4.476562 0.445312 -4.546875 0.21875 -4.546875 L 0.21875 -4.734375 C 0.414062 -4.710938 0.601562 -4.703125 0.78125 -4.703125 C 1.039062 -4.703125 1.28125 -4.710938 1.5 -4.734375 C 1.726562 -4.753906 1.9375 -4.785156 2.125 -4.828125 Z M 2.125 -4.828125 "/></g></g></g><g fill="#000000" fill-opacity="1"><g transform="translate(186.327128, 67.772455)"><g><path d="M 3.625 -4.859375 C 3.882812 -4.859375 4.09375 -4.828125 4.25 -4.765625 C 4.414062 -4.703125 4.546875 -4.613281 4.640625 -4.5 C 4.734375 -4.382812 4.800781 -4.234375 4.84375 -4.046875 C 4.894531 -3.867188 4.921875 -3.625 4.921875 -3.3125 L 4.921875 -0.84375 C 4.921875 -0.59375 4.960938 -0.421875 5.046875 -0.328125 C 5.140625 -0.234375 5.289062 -0.1875 5.5 -0.1875 L 5.5 0 C 5.382812 -0.0078125 5.210938 -0.015625 4.984375 -0.015625 C 4.753906 -0.0234375 4.523438 -0.03125 4.296875 -0.03125 C 4.066406 -0.03125 3.835938 -0.0234375 3.609375 -0.015625 C 3.390625 -0.015625 3.222656 -0.0078125 3.109375 0 L 3.109375 -0.1875 C 3.285156 -0.1875 3.410156 -0.234375 3.484375 -0.328125 C 3.554688 -0.421875 3.59375 -0.59375 3.59375 -0.84375 L 3.59375 -3.703125 C 3.59375 -3.847656 3.578125 -3.976562 3.546875 -4.09375 C 3.515625 -4.207031 3.457031 -4.296875 3.375 -4.359375 C 3.300781 -4.421875 3.1875 -4.453125 3.03125 -4.453125 C 2.863281 -4.453125 2.710938 -4.40625 2.578125 -4.3125 C 2.441406 -4.226562 2.332031 -4.101562 2.25 -3.9375 C 2.164062 -3.78125 2.125 -3.597656 2.125 -3.390625 L 2.125 -0.84375 C 2.125 -0.59375 2.160156 -0.421875 2.234375 -0.328125 C 2.316406 -0.234375 2.445312 -0.1875 2.625 -0.1875 L 2.625 0 C 2.507812 -0.0078125 2.347656 -0.015625 2.140625 -0.015625 C 1.929688 -0.0234375 1.710938 -0.03125 1.484375 -0.03125 C 1.253906 -0.03125 1.015625 -0.0234375 0.765625 -0.015625 C 0.523438 -0.015625 0.34375 -0.0078125 0.21875 0 L 0.21875 -0.1875 C 0.4375 -0.1875 0.585938 -0.234375 0.671875 -0.328125 C 0.765625 -0.421875 0.8125 -0.59375 0.8125 -0.84375 L 0.8125 -3.734375 C 0.8125 -4.003906 0.769531 -4.207031 0.6875 -4.34375 C 0.601562 -4.476562 0.445312 -4.546875 0.21875 -4.546875 L 0.21875 -4.734375 C 0.414062 -4.710938 0.601562 -4.703125 0.78125 -4.703125 C 1.039062 -4.703125 1.28125 -4.710938 1.5 -4.734375 C 1.726562 -4.753906 1.9375 -4.785156 2.125 -4.828125 L 2.125 -4.015625 C 2.28125 -4.328125 2.488281 -4.546875 2.75 -4.671875 C 3.007812 -4.796875 3.300781 -4.859375 3.625 -4.859375 Z M 3.625 -4.859375 "/></g></g></g><g fill="#000000" fill-opacity="1"><g transform="translate(193.54203, 67.772455)"><g/></g></g><g fill="#000000" fill-opacity="1"><g transform="translate(197.269867, 67.772455)"><g><path d="M 4.71875 -7.171875 L 4.71875 -1 C 4.71875 -0.726562 4.757812 -0.523438 4.84375 -0.390625 C 4.9375 -0.265625 5.09375 -0.203125 5.3125 -0.203125 L 5.3125 -0.015625 C 5.125 -0.0234375 4.9375 -0.03125 4.75 -0.03125 C 4.488281 -0.03125 4.242188 -0.0195312 4.015625 0 C 3.796875 0.0078125 3.59375 0.0390625 3.40625 0.09375 L 3.40625 -6.078125 C 3.40625 -6.347656 3.363281 -6.546875 3.28125 -6.671875 C 3.195312 -6.804688 3.039062 -6.875 2.8125 -6.875 L 2.8125 -7.0625 C 3.007812 -7.050781 3.203125 -7.046875 3.390625 -7.046875 C 3.640625 -7.046875 3.875 -7.054688 4.09375 -7.078125 C 4.320312 -7.097656 4.53125 -7.128906 4.71875 -7.171875 Z M 2.390625 -4.859375 C 2.660156 -4.859375 2.894531 -4.8125 3.09375 -4.71875 C 3.300781 -4.632812 3.460938 -4.488281 3.578125 -4.28125 L 3.46875 -4.1875 C 3.382812 -4.332031 3.273438 -4.4375 3.140625 -4.5 C 3.015625 -4.5625 2.878906 -4.59375 2.734375 -4.59375 C 2.421875 -4.59375 2.171875 -4.410156 1.984375 -4.046875 C 1.804688 -3.679688 1.722656 -3.125 1.734375 -2.375 C 1.734375 -1.851562 1.765625 -1.4375 1.828125 -1.125 C 1.898438 -0.820312 2 -0.601562 2.125 -0.46875 C 2.257812 -0.332031 2.414062 -0.265625 2.59375 -0.265625 C 2.800781 -0.265625 2.984375 -0.347656 3.140625 -0.515625 C 3.304688 -0.679688 3.398438 -0.90625 3.421875 -1.1875 L 3.46875 -0.859375 C 3.375 -0.535156 3.222656 -0.289062 3.015625 -0.125 C 2.804688 0.0390625 2.539062 0.125 2.21875 0.125 C 1.851562 0.125 1.53125 0.0351562 1.25 -0.140625 C 0.96875 -0.316406 0.742188 -0.585938 0.578125 -0.953125 C 0.421875 -1.328125 0.34375 -1.804688 0.34375 -2.390625 C 0.34375 -2.941406 0.429688 -3.398438 0.609375 -3.765625 C 0.785156 -4.128906 1.023438 -4.398438 1.328125 -4.578125 C 1.640625 -4.765625 1.992188 -4.859375 2.390625 -4.859375 Z M 2.390625 -4.859375 "/></g></g></g><g fill="#000000" fill-opacity="1"><g transform="translate(204.338328, 67.772455)"><g><path d="M 1.40625 -7.09375 C 1.664062 -7.09375 1.867188 -7.03125 2.015625 -6.90625 C 2.160156 -6.78125 2.234375 -6.609375 2.234375 -6.390625 C 2.234375 -6.171875 2.160156 -6 2.015625 -5.875 C 1.867188 -5.75 1.664062 -5.6875 1.40625 -5.6875 C 1.144531 -5.6875 0.941406 -5.75 0.796875 -5.875 C 0.648438 -6 0.578125 -6.171875 0.578125 -6.390625 C 0.578125 -6.609375 0.648438 -6.78125 0.796875 -6.90625 C 0.941406 -7.03125 1.144531 -7.09375 1.40625 -7.09375 Z M 2.125 -4.828125 L 2.125 -0.84375 C 2.125 -0.59375 2.164062 -0.421875 2.25 -0.328125 C 2.34375 -0.234375 2.492188 -0.1875 2.703125 -0.1875 L 2.703125 0 C 2.597656 -0.0078125 2.425781 -0.015625 2.1875 -0.015625 C 1.957031 -0.0234375 1.726562 -0.03125 1.5 -0.03125 C 1.257812 -0.03125 1.015625 -0.0234375 0.765625 -0.015625 C 0.523438 -0.015625 0.34375 -0.0078125 0.21875 0 L 0.21875 -0.1875 C 0.4375 -0.1875 0.585938 -0.234375 0.671875 -0.328125 C 0.765625 -0.421875 0.8125 -0.59375 0.8125 -0.84375 L 0.8125 -3.734375 C 0.8125 -4.003906 0.769531 -4.207031 0.6875 -4.34375 C 0.601562 -4.476562 0.445312 -4.546875 0.21875 -4.546875 L 0.21875 -4.734375 C 0.414062 -4.710938 0.601562 -4.703125 0.78125 -4.703125 C 1.039062 -4.703125 1.28125 -4.710938 1.5 -4.734375 C 1.726562 -4.753906 1.9375 -4.785156 2.125 -4.828125 Z M 2.125 -4.828125 "/></g></g></g><g fill="#000000" fill-opacity="1"><g transform="translate(208.816661, 67.772455)"><g><path d="M 3.375 -4.859375 C 3.5625 -4.859375 3.71875 -4.816406 3.84375 -4.734375 C 3.96875 -4.648438 4.054688 -4.546875 4.109375 -4.421875 C 4.171875 -4.296875 4.203125 -4.160156 4.203125 -4.015625 C 4.203125 -3.796875 4.132812 -3.613281 4 -3.46875 C 3.875 -3.320312 3.703125 -3.25 3.484375 -3.25 C 3.273438 -3.25 3.109375 -3.300781 2.984375 -3.40625 C 2.867188 -3.519531 2.8125 -3.664062 2.8125 -3.84375 C 2.8125 -4.007812 2.847656 -4.148438 2.921875 -4.265625 C 3.003906 -4.378906 3.101562 -4.472656 3.21875 -4.546875 C 3.125 -4.578125 3.035156 -4.578125 2.953125 -4.546875 C 2.835938 -4.523438 2.726562 -4.472656 2.625 -4.390625 C 2.519531 -4.316406 2.429688 -4.222656 2.359375 -4.109375 C 2.285156 -4.003906 2.226562 -3.882812 2.1875 -3.75 C 2.144531 -3.613281 2.125 -3.488281 2.125 -3.375 L 2.125 -0.9375 C 2.125 -0.644531 2.191406 -0.445312 2.328125 -0.34375 C 2.472656 -0.238281 2.691406 -0.1875 2.984375 -0.1875 L 2.984375 0 C 2.847656 -0.0078125 2.644531 -0.015625 2.375 -0.015625 C 2.101562 -0.0234375 1.820312 -0.03125 1.53125 -0.03125 C 1.28125 -0.03125 1.03125 -0.0234375 0.78125 -0.015625 C 0.53125 -0.015625 0.34375 -0.0078125 0.21875 0 L 0.21875 -0.1875 C 0.4375 -0.1875 0.585938 -0.234375 0.671875 -0.328125 C 0.765625 -0.421875 0.8125 -0.59375 0.8125 -0.84375 L 0.8125 -3.734375 C 0.8125 -4.003906 0.769531 -4.207031 0.6875 -4.34375 C 0.601562 -4.476562 0.445312 -4.546875 0.21875 -4.546875 L 0.21875 -4.734375 C 0.414062 -4.710938 0.601562 -4.703125 0.78125 -4.703125 C 1.039062 -4.703125 1.28125 -4.710938 1.5 -4.734375 C 1.726562 -4.753906 1.9375 -4.785156 2.125 -4.828125 L 2.125 -3.984375 C 2.195312 -4.148438 2.289062 -4.300781 2.40625 -4.4375 C 2.53125 -4.570312 2.671875 -4.675781 2.828125 -4.75 C 2.992188 -4.820312 3.175781 -4.859375 3.375 -4.859375 Z M 3.375 -4.859375 "/></g></g></g><g fill="#000000" fill-opacity="1"><g transform="translate(214.686163, 67.772455)"><g><path d="M 2.078125 -6.234375 L 2.078125 -4.734375 L 3.15625 -4.734375 L 3.15625 -4.546875 L 2.078125 -4.546875 L 2.078125 -0.84375 C 2.078125 -0.664062 2.109375 -0.535156 2.171875 -0.453125 C 2.242188 -0.378906 2.347656 -0.34375 2.484375 -0.34375 C 2.585938 -0.34375 2.691406 -0.382812 2.796875 -0.46875 C 2.910156 -0.550781 3.015625 -0.691406 3.109375 -0.890625 L 3.265625 -0.8125 C 3.160156 -0.539062 3.007812 -0.316406 2.8125 -0.140625 C 2.613281 0.0351562 2.34375 0.125 2 0.125 C 1.800781 0.125 1.625 0.0976562 1.46875 0.046875 C 1.320312 -0.00390625 1.195312 -0.0820312 1.09375 -0.1875 C 0.957031 -0.320312 0.867188 -0.488281 0.828125 -0.6875 C 0.785156 -0.882812 0.765625 -1.140625 0.765625 -1.453125 L 0.765625 -4.546875 L -0.015625 -4.546875 L -0.015625 -4.734375 L 0.765625 -4.734375 L 0.765625 -5.9375 C 1.015625 -5.9375 1.25 -5.957031 1.46875 -6 C 1.6875 -6.050781 1.890625 -6.128906 2.078125 -6.234375 Z M 2.078125 -6.234375 "/></g></g></g><g fill="#000000" fill-opacity="1"><g transform="translate(219.503145, 67.772455)"><g><path d="M 2.96875 -6.609375 C 3.125 -6.609375 3.253906 -6.578125 3.359375 -6.515625 C 3.472656 -6.460938 3.5625 -6.390625 3.625 -6.296875 C 3.695312 -6.203125 3.75 -6.082031 3.78125 -5.9375 C 3.8125 -5.800781 3.828125 -5.664062 3.828125 -5.53125 C 3.828125 -5.226562 3.75 -4.945312 3.59375 -4.6875 C 3.4375 -4.425781 3.191406 -4.21875 2.859375 -4.0625 L 2.78125 -4.234375 C 2.957031 -4.304688 3.109375 -4.414062 3.234375 -4.5625 C 3.367188 -4.71875 3.453125 -4.875 3.484375 -5.03125 C 3.515625 -5.164062 3.515625 -5.296875 3.484375 -5.421875 C 3.347656 -5.273438 3.171875 -5.203125 2.953125 -5.203125 C 2.734375 -5.203125 2.554688 -5.265625 2.421875 -5.390625 C 2.285156 -5.515625 2.21875 -5.6875 2.21875 -5.90625 C 2.21875 -6.113281 2.289062 -6.28125 2.4375 -6.40625 C 2.582031 -6.539062 2.757812 -6.609375 2.96875 -6.609375 Z M 1.09375 -6.609375 C 1.238281 -6.609375 1.367188 -6.578125 1.484375 -6.515625 C 1.597656 -6.460938 1.679688 -6.390625 1.734375 -6.296875 C 1.804688 -6.203125 1.859375 -6.082031 1.890625 -5.9375 C 1.921875 -5.800781 1.9375 -5.664062 1.9375 -5.53125 C 1.9375 -5.226562 1.859375 -4.945312 1.703125 -4.6875 C 1.546875 -4.425781 1.304688 -4.21875 0.984375 -4.0625 L 0.890625 -4.234375 C 1.066406 -4.304688 1.222656 -4.414062 1.359375 -4.5625 C 1.492188 -4.71875 1.570312 -4.875 1.59375 -5.03125 C 1.625 -5.164062 1.625 -5.296875 1.59375 -5.421875 C 1.457031 -5.273438 1.28125 -5.203125 1.0625 -5.203125 C 0.84375 -5.203125 0.664062 -5.265625 0.53125 -5.390625 C 0.40625 -5.515625 0.34375 -5.6875 0.34375 -5.90625 C 0.34375 -6.113281 0.410156 -6.28125 0.546875 -6.40625 C 0.691406 -6.539062 0.875 -6.609375 1.09375 -6.609375 Z M 1.09375 -6.609375 "/></g></g></g><path fill="#ff9130" d="M 42.617188 45.539062 C 42.722656 45.421875 42.722656 45.410156 42.722656 45.257812 C 42.617188 45.152344 42.589844 45.164062 42.4375 45.140625 C 42.320312 45.257812 42.320312 45.269531 42.308594 45.433594 C 42.4375 45.550781 42.4375 45.539062 42.617188 45.539062 Z M 42.617188 45.539062 " fill-opacity="1" fill-rule="nonzero"/><path fill="#ff9130" d="M 42.0625 46.65625 C 42.167969 46.738281 42.191406 46.761719 42.320312 46.738281 L 42.367188 46.726562 L 42.460938 46.597656 C 42.414062 46.457031 42.414062 46.445312 42.296875 46.363281 C 42.238281 46.351562 42.167969 46.351562 42.109375 46.351562 C 42.027344 46.492188 42.027344 46.492188 42.0625 46.65625 Z M 42.0625 46.65625 " fill-opacity="1" fill-rule="nonzero"/><path fill="#ff9130" d="M 39.96875 46.046875 C 40.003906 46.222656 40.015625 46.246094 40.132812 46.375 C 40.203125 46.386719 40.261719 46.398438 40.320312 46.398438 C 40.367188 46.234375 40.378906 46.199219 40.34375 46.023438 C 40.214844 45.953125 40.191406 45.953125 40.039062 45.953125 Z M 39.96875 46.046875 " fill-opacity="1" fill-rule="nonzero"/><path fill="#ff9130" d="M 42.261719 43.738281 C 42.203125 43.882812 42.203125 43.90625 42.226562 44.058594 C 42.378906 44.128906 42.4375 44.152344 42.605469 44.09375 C 42.664062 43.953125 42.664062 43.941406 42.640625 43.773438 C 42.496094 43.714844 42.414062 43.726562 42.261719 43.738281 Z M 42.261719 43.738281 " fill-opacity="1" fill-rule="nonzero"/><path fill="#ff9130" d="M 41.039062 46.1875 C 40.980469 46.351562 40.992188 46.375 41.027344 46.550781 C 41.179688 46.621094 41.214844 46.621094 41.378906 46.574219 C 41.449219 46.421875 41.449219 46.433594 41.390625 46.257812 C 41.226562 46.152344 41.226562 46.175781 41.039062 46.1875 Z M 41.039062 46.1875 " fill-opacity="1" fill-rule="nonzero"/><path fill="#ff9130" d="M 41.355469 45.046875 C 41.285156 45.175781 41.238281 45.210938 41.261719 45.363281 C 41.402344 45.46875 41.496094 45.480469 41.675781 45.46875 C 41.769531 45.339844 41.757812 45.339844 41.734375 45.1875 C 41.652344 45.105469 41.582031 45.023438 41.449219 45.023438 Z M 41.355469 45.046875 " fill-opacity="1" fill-rule="nonzero"/><path fill="#ff9130" d="M 40.523438 45.351562 C 40.59375 45.199219 40.605469 45.175781 40.582031 45.011719 C 40.488281 44.917969 40.449219 44.882812 40.296875 44.90625 L 40.203125 44.941406 C 40.109375 45.105469 40.121094 45.09375 40.167969 45.28125 C 40.261719 45.351562 40.308594 45.386719 40.425781 45.398438 Z M 40.523438 45.351562 " fill-opacity="1" fill-rule="nonzero"/><path fill="#ff9130" d="M 40.980469 38.554688 C 40.792969 38.636719 40.804688 38.625 40.722656 38.800781 C 40.757812 38.871094 40.746094 38.90625 40.828125 38.941406 C 40.921875 38.988281 40.980469 38.976562 41.085938 38.976562 L 41.261719 38.929688 C 41.308594 38.800781 41.273438 38.777344 41.226562 38.648438 C 41.132812 38.578125 41.085938 38.566406 40.980469 38.554688 Z M 40.980469 38.554688 " fill-opacity="1" fill-rule="nonzero"/><path fill="#ff9130" d="M 39.429688 45.1875 L 39.582031 45.152344 C 39.640625 44.988281 39.640625 44.90625 39.59375 44.738281 C 39.453125 44.667969 39.308594 44.667969 39.144531 44.703125 C 39.144531 44.859375 39.191406 44.964844 39.296875 45.082031 C 39.332031 45.117188 39.378906 45.152344 39.429688 45.1875 Z M 39.429688 45.1875 " fill-opacity="1" fill-rule="nonzero"/><path fill="#ff9130" d="M 42.109375 42.527344 L 42.097656 42.753906 C 42.191406 42.847656 42.226562 42.917969 42.367188 42.917969 C 42.402344 42.917969 42.4375 42.90625 42.472656 42.894531 C 42.605469 42.765625 42.605469 42.765625 42.628906 42.585938 C 42.496094 42.46875 42.4375 42.46875 42.261719 42.445312 Z M 42.109375 42.527344 " fill-opacity="1" fill-rule="nonzero"/><path fill="#ff9130" d="M 41.097656 43.621094 C 41.039062 43.621094 41.027344 43.632812 40.980469 43.644531 C 40.910156 43.800781 40.898438 43.824219 40.921875 43.988281 C 41.050781 44.105469 41.191406 44.117188 41.367188 44.117188 C 41.472656 43.964844 41.449219 43.917969 41.4375 43.738281 C 41.332031 43.644531 41.25 43.609375 41.097656 43.621094 Z M 41.097656 43.621094 " fill-opacity="1" fill-rule="nonzero"/><path fill="#ff9130" d="M 39.886719 43.398438 L 39.757812 43.503906 C 39.746094 43.679688 39.722656 43.714844 39.816406 43.871094 C 39.933594 43.929688 40.003906 43.953125 40.132812 43.941406 L 40.261719 43.859375 C 40.273438 43.691406 40.285156 43.632812 40.203125 43.480469 C 40.097656 43.410156 40.003906 43.375 39.886719 43.398438 Z M 39.886719 43.398438 " fill-opacity="1" fill-rule="nonzero"/><path fill="#ff9130" d="M 38.980469 43.621094 C 39.039062 43.621094 39.121094 43.597656 39.179688 43.585938 C 39.132812 43.398438 38.945312 43.1875 38.78125 43.070312 C 38.675781 42.988281 38.59375 43.011719 38.476562 43.046875 C 38.476562 43.222656 38.453125 43.304688 38.59375 43.445312 C 38.6875 43.539062 38.839844 43.621094 38.980469 43.621094 Z M 38.980469 43.621094 " fill-opacity="1" fill-rule="nonzero"/><path fill="#ff9130" d="M 39.664062 41.929688 L 39.617188 41.941406 C 39.523438 42.082031 39.476562 42.1875 39.523438 42.363281 C 39.558594 42.492188 39.628906 42.503906 39.734375 42.5625 L 39.933594 42.550781 C 40.039062 42.386719 40.003906 42.234375 40.003906 42.035156 C 39.875 41.941406 39.828125 41.917969 39.664062 41.929688 Z M 39.664062 41.929688 " fill-opacity="1" fill-rule="nonzero"/><path fill="#ff9130" d="M 38.980469 40.5625 L 39.132812 40.601562 L 39.285156 40.550781 C 39.332031 40.386719 39.332031 40.292969 39.308594 40.117188 C 39.179688 39.964844 39.179688 39.976562 38.980469 39.941406 C 38.816406 40.046875 38.828125 40.058594 38.769531 40.234375 C 38.828125 40.410156 38.839844 40.445312 38.980469 40.5625 Z M 38.980469 40.5625 " fill-opacity="1" fill-rule="nonzero"/><path fill="#ff9130" d="M 38.453125 41.644531 C 38.34375 41.789062 38.371094 41.824219 38.371094 42 C 38.441406 42.128906 38.523438 42.234375 38.664062 42.28125 C 38.746094 42.304688 38.769531 42.304688 38.839844 42.316406 C 38.933594 42.164062 38.898438 42.035156 38.898438 41.859375 C 38.804688 41.707031 38.804688 41.707031 38.640625 41.632812 Z M 38.453125 41.644531 " fill-opacity="1" fill-rule="nonzero"/><path fill="#ff9130" d="M 43.027344 41.1875 C 43.132812 41.304688 43.191406 41.339844 43.34375 41.386719 C 43.425781 41.375 43.496094 41.363281 43.566406 41.328125 L 43.6875 41.199219 C 43.675781 41.070312 43.648438 40.976562 43.53125 40.894531 C 43.425781 40.800781 43.285156 40.8125 43.15625 40.835938 L 43.109375 40.847656 C 43.039062 40.988281 43.003906 41.023438 43.027344 41.1875 Z M 43.027344 41.1875 " fill-opacity="1" fill-rule="nonzero"/><path fill="#ff9130" d="M 40.980469 42.222656 L 40.886719 42.246094 C 40.792969 42.363281 40.78125 42.421875 40.769531 42.574219 C 40.839844 42.71875 40.898438 42.8125 41.074219 42.859375 C 41.132812 42.871094 41.144531 42.859375 41.191406 42.859375 L 41.332031 42.753906 C 41.355469 42.597656 41.378906 42.480469 41.332031 42.339844 C 41.214844 42.257812 41.121094 42.1875 40.980469 42.222656 Z M 40.980469 42.222656 " fill-opacity="1" fill-rule="nonzero"/><path fill="#ff9130" d="M 40.296875 40.199219 C 40.203125 40.363281 40.191406 40.503906 40.214844 40.695312 C 40.226562 40.753906 40.25 40.800781 40.285156 40.847656 C 40.414062 40.90625 40.460938 40.917969 40.605469 40.871094 L 40.664062 40.847656 C 40.78125 40.695312 40.828125 40.550781 40.792969 40.351562 L 40.78125 40.257812 C 40.617188 40.164062 40.488281 40.152344 40.296875 40.199219 Z M 40.296875 40.199219 " fill-opacity="1" fill-rule="nonzero"/><path fill="#ff9130" d="M 41.675781 40.480469 L 41.628906 40.492188 C 41.507812 40.648438 41.519531 40.683594 41.507812 40.871094 C 41.582031 40.988281 41.605469 41.082031 41.746094 41.128906 C 41.816406 41.152344 41.945312 41.140625 42.015625 41.128906 L 42.15625 41.046875 C 42.179688 40.847656 42.179688 40.824219 42.109375 40.648438 C 41.96875 40.527344 41.875 40.457031 41.675781 40.480469 Z M 41.675781 40.480469 " fill-opacity="1" fill-rule="nonzero"/><path fill="#ff9130" d="M 42.296875 38.496094 C 42.226562 38.472656 42.15625 38.496094 42.085938 38.507812 C 42.003906 38.625 41.980469 38.695312 41.96875 38.835938 C 42.15625 39.105469 42.734375 39.328125 43.027344 39.46875 L 43.144531 39.433594 C 42.945312 39.046875 42.722656 38.636719 42.296875 38.496094 Z M 42.296875 38.496094 " fill-opacity="1" fill-rule="nonzero"/><path fill="#ff9130" d="M 14.386719 18.167969 C 13.84375 17.804688 13.09375 17.617188 12.457031 17.546875 C 11.964844 17.488281 11.386719 16.96875 11.105469 16.605469 C 10.929688 16.382812 10.835938 15.957031 10.597656 15.839844 L 10.421875 15.886719 C 10.246094 16.027344 10.152344 16.121094 10.128906 16.359375 C 10.082031 16.699219 10.316406 17.039062 10.527344 17.289062 C 10.941406 17.78125 11.445312 18.214844 11.929688 18.652344 C 11.859375 19.085938 11.75 19.570312 11.800781 20.015625 C 11.859375 20.605469 12.175781 21.167969 12.515625 21.640625 C 13.257812 22.664062 14.023438 23.496094 14.351562 24.746094 C 14.410156 24.507812 14.398438 24.226562 14.421875 23.980469 C 14.457031 23.273438 14.503906 22.628906 14.128906 21.992188 C 13.714844 21.308594 12.964844 20.710938 12.796875 19.910156 L 12.796875 19.828125 C 12.808594 19.558594 12.832031 19.332031 13.046875 19.144531 C 13.140625 19.0625 13.234375 19.015625 13.363281 19.027344 C 13.585938 19.050781 13.785156 19.203125 13.964844 19.347656 C 14.515625 19.804688 14.972656 20.367188 15.410156 20.933594 L 16.457031 22.367188 C 16.152344 20.863281 15.703125 19.074219 14.386719 18.167969 Z M 14.386719 18.167969 " fill-opacity="1" fill-rule="nonzero"/><path fill="#ff9130" d="M 35.195312 27.992188 C 34.453125 27.835938 33.699219 27.484375 32.980469 27.226562 C 31.957031 26.863281 30.914062 26.554688 29.902344 26.15625 C 29.570312 26.027344 29.265625 25.816406 28.9375 25.707031 C 29.464844 26.378906 29.996094 27.179688 30.699219 27.660156 C 31.242188 28.039062 31.910156 28.15625 32.523438 28.355469 C 33.910156 28.8125 35.535156 29.777344 36.277344 31.074219 C 36.476562 31.460938 36.652344 31.90625 36.910156 32.25 C 37.347656 32.824219 37.921875 33.320312 38.429688 33.835938 C 38.992188 34.4375 39.476562 35.09375 39.792969 35.847656 C 39.863281 35.308594 40.039062 34.519531 39.957031 33.988281 C 39.886719 33.542969 39.570312 33.070312 39.308594 32.71875 C 38.734375 31.953125 37.992188 31.296875 37.535156 30.4375 C 36.863281 29.167969 36.652344 27.671875 35.910156 26.460938 C 35.570312 25.898438 35.132812 25.472656 34.605469 25.085938 C 34.40625 24.933594 34.0625 24.664062 33.816406 24.601562 L 33.863281 24.699219 C 33.992188 24.957031 34.195312 25.179688 34.347656 25.425781 C 34.664062 25.945312 34.921875 26.53125 35.132812 27.097656 C 35.230469 27.367188 35.347656 27.625 35.335938 27.921875 C 35.230469 28.003906 35.265625 28.003906 35.195312 27.992188 Z M 35.195312 27.992188 " fill-opacity="1" fill-rule="nonzero"/><g clip-path="url(#5e472ea5ab)"><path fill="#ff9130" d="M 20.363281 16.109375 C 19.902344 16.050781 19.433594 16.171875 18.984375 16.21875 C 17.996094 16.335938 17.066406 16.207031 16.128906 15.898438 C 15.140625 15.59375 14.492188 14.96875 13.703125 14.347656 C 12.738281 13.582031 11.667969 13.125 10.445312 13.078125 C 9.46875 13.160156 8.707031 13.464844 8.070312 14.230469 C 7.105469 15.382812 6.988281 16.875 7.128906 18.3125 C 7.234375 19.371094 7.539062 20.453125 7.929688 21.425781 C 8.046875 21.722656 8.1875 22.015625 8.328125 22.308594 C 8.339844 22.34375 8.433594 22.507812 8.433594 22.546875 C 8.421875 22.664062 8.234375 22.980469 8.164062 23.097656 C 7.71875 24.015625 7.234375 24.921875 6.765625 25.828125 C 4.578125 30.121094 2.210938 34.835938 2.261719 39.753906 C 2.273438 41.492188 2.601562 43.128906 3.789062 44.46875 C 3.589844 43.621094 3.484375 42.71875 3.402344 41.847656 C 3.28125 40.585938 3.246094 39.304688 3.378906 38.046875 C 3.765625 34.378906 5.328125 30.976562 6.929688 27.695312 C 7.421875 26.683594 7.941406 25.683594 8.46875 24.6875 C 8.671875 24.308594 8.859375 23.863281 9.09375 23.507812 L 9.140625 23.460938 C 9.753906 24.238281 10.351562 25.015625 10.964844 25.792969 C 11.515625 26.496094 12.175781 27.226562 12.527344 28.0625 C 12.691406 28.460938 12.738281 28.800781 12.679688 29.226562 L 12.246094 31.011719 C 11.988281 32.070312 11.75 33.128906 11.65625 34.210938 C 11.550781 35.4375 11.65625 36.671875 11.882812 37.871094 C 12.070312 38.894531 12.351562 39.871094 12.882812 40.765625 C 13.128906 41.175781 13.457031 41.515625 13.773438 41.871094 L 13.738281 41.800781 C 13.515625 41.339844 13.457031 40.8125 13.328125 40.316406 C 12.773438 38 12.398438 35.554688 12.761719 33.167969 C 12.871094 32.472656 13.035156 31.765625 13.210938 31.085938 C 13.445312 30.167969 13.917969 28.871094 13.632812 27.933594 C 13.46875 27.390625 13.070312 26.886719 12.738281 26.425781 C 11.714844 25.003906 10.421875 23.78125 9.480469 22.296875 C 8.800781 21.214844 8.351562 19.933594 8.175781 18.675781 C 8.046875 17.746094 8.023438 16.746094 8.339844 15.851562 C 8.5625 15.230469 8.976562 14.605469 9.597656 14.324219 C 10.28125 14.015625 11.210938 14.171875 11.882812 14.441406 C 12.964844 14.875 13.75 15.734375 14.761719 16.289062 C 16.082031 17.003906 18.054688 17.335938 19.539062 17.109375 C 20.433594 16.980469 21.253906 16.746094 22.171875 16.746094 C 21.609375 16.476562 20.996094 16.183594 20.363281 16.109375 Z M 20.363281 16.109375 " fill-opacity="1" fill-rule="nonzero"/></g><g clip-path="url(#f28b108211)"><path fill="#ff9130" d="M 52.730469 37.414062 C 52.566406 37.09375 52.296875 36.859375 52 36.671875 C 51.929688 36.625 51.777344 36.566406 51.730469 36.507812 C 51.71875 36.496094 51.695312 36.355469 51.683594 36.328125 C 51.625 36.070312 51.578125 35.789062 51.496094 35.542969 C 51.425781 35.367188 51.296875 35.199219 51.191406 35.046875 C 49.929688 33.414062 48.613281 31.8125 47.320312 30.214844 C 46.355469 29.015625 45.285156 27.835938 44.496094 26.507812 C 44.425781 26.390625 44.261719 26.167969 44.25 26.039062 C 44.238281 25.957031 44.273438 25.804688 44.285156 25.722656 C 44.308594 25.449219 44.34375 25.179688 44.367188 24.898438 C 44.519531 23.296875 44.589844 21.25 43.144531 20.179688 C 43.003906 20.074219 42.863281 19.980469 42.710938 19.910156 C 42.589844 19.851562 42.472656 19.804688 42.34375 19.769531 C 41.804688 19.617188 41.121094 19.6875 40.628906 19.957031 C 40.4375 20.0625 40.261719 20.203125 40.097656 20.355469 C 39.226562 19.476562 38.34375 18.664062 37.347656 17.921875 C 33.300781 14.945312 28.289062 13.441406 23.289062 13.40625 L 21.492188 13.429688 C 19.632812 13.558594 17.691406 13.804688 15.9375 14.464844 C 15.691406 14.558594 15.234375 14.722656 15.09375 14.945312 L 15.058594 15.027344 C 15.199219 15.160156 15.328125 15.171875 15.515625 15.160156 C 16.363281 15.136719 17.210938 14.96875 18.042969 14.828125 C 19.207031 14.640625 20.375 14.453125 21.539062 14.371094 C 27.511719 13.96875 34.085938 15.921875 38.523438 20.039062 C 39.390625 20.839844 40.179688 21.757812 40.898438 22.699219 C 42.003906 24.144531 42.769531 25.804688 43.839844 27.273438 C 45.660156 29.765625 47.753906 32.058594 49.636719 34.507812 C 50.132812 35.152344 50.601562 35.753906 50.871094 36.53125 C 50.589844 37.023438 50.308594 37.316406 49.742188 37.472656 C 49.542969 37.53125 49.390625 37.484375 49.214844 37.375 C 48.871094 37.164062 48.542969 36.90625 48.191406 36.71875 C 47.53125 36.378906 46.671875 36.234375 45.945312 36.378906 C 45.4375 36.484375 44.851562 36.71875 44.542969 37.164062 C 44.34375 37.472656 44.308594 37.859375 44.402344 38.210938 C 44.578125 38.976562 45.074219 39.613281 45.742188 40.011719 C 46.34375 40.375 47.085938 40.5625 47.613281 41.035156 C 47.933594 41.316406 48.132812 41.644531 48.308594 42.035156 C 48.425781 42.292969 48.566406 42.574219 48.625 42.847656 C 48.648438 42.953125 48.648438 43.035156 48.636719 43.140625 L 48.625 43.222656 C 48.53125 44 48.109375 45.234375 47.460938 45.714844 C 46.730469 46.257812 45.742188 46.398438 44.980469 46.890625 C 45.238281 47.433594 45.472656 48.105469 45.25 48.714844 C 45.074219 49.175781 44.71875 49.527344 44.261719 49.714844 C 43.296875 50.101562 42.027344 50.019531 41.015625 49.890625 C 40.582031 49.832031 40.144531 49.773438 39.734375 49.597656 C 38.933594 49.257812 38.59375 48.351562 38.191406 47.632812 C 38.003906 47.292969 37.769531 46.976562 37.488281 46.703125 C 35.417969 44.574219 31.21875 43.28125 28.300781 43.292969 C 27.066406 43.292969 25.855469 43.515625 24.703125 43.964844 C 23.21875 44.539062 21.949219 45.398438 21.300781 46.890625 C 20.691406 48.304688 20.832031 49.9375 21.386719 51.351562 C 21.761719 52.292969 22.277344 53.160156 23.03125 53.855469 L 22.539062 52.339844 C 22.289062 51.539062 22.089844 50.761719 21.984375 49.925781 C 21.84375 48.785156 21.984375 47.433594 22.726562 46.503906 C 22.972656 46.1875 23.277344 45.941406 23.597656 45.691406 C 23.429688 46.820312 23.359375 47.84375 23.644531 48.960938 C 24.183594 51.207031 25.546875 53.207031 26.441406 55.324219 C 26.832031 56.242188 27.183594 57.195312 27.535156 58.125 C 27.738281 58.667969 27.925781 59.371094 28.242188 59.855469 C 28.183594 58.582031 28.089844 57.300781 27.890625 56.042969 C 27.488281 53.5625 26.359375 50.714844 28.324219 48.597656 C 29.582031 47.246094 31.453125 46.796875 33.242188 46.75 C 34.40625 46.714844 36.203125 46.890625 37.074219 47.738281 C 37.464844 48.117188 37.675781 48.632812 37.992188 49.066406 C 39.121094 50.585938 40.851562 50.984375 42.675781 50.972656 C 43.664062 50.960938 44.816406 50.796875 45.53125 50.042969 C 46.015625 49.539062 46.320312 48.75 46.308594 48.046875 L 46.214844 47.316406 L 46.285156 47.339844 C 46.625 47.457031 46.777344 47.433594 47.097656 47.269531 C 47.53125 47.046875 47.871094 46.691406 48.15625 46.304688 C 49.097656 45.046875 49.425781 43.457031 50.144531 42.082031 C 50.320312 41.753906 50.519531 41.457031 50.777344 41.199219 C 51.542969 40.46875 52.449219 40.058594 52.777344 38.964844 C 52.964844 38.445312 52.964844 37.871094 52.730469 37.414062 Z M 43.332031 24.96875 L 43.25 24.828125 C 42.664062 23.460938 41.828125 22.261719 40.945312 21.085938 L 41.449219 20.863281 C 41.640625 20.851562 41.851562 20.828125 42.039062 20.851562 C 42.390625 20.898438 42.675781 21.121094 42.886719 21.390625 C 43.613281 22.332031 43.460938 23.875 43.332031 24.96875 Z M 30.734375 46.09375 C 29.148438 46.5625 27.710938 47.515625 26.914062 48.996094 C 26.417969 49.960938 26.21875 51.160156 26.335938 52.230469 C 26.382812 52.703125 26.523438 53.171875 26.570312 53.644531 C 26.3125 53.042969 26.054688 52.445312 25.773438 51.84375 C 25.253906 50.75 24.667969 49.550781 24.523438 48.328125 C 24.40625 47.339844 24.523438 45.988281 25.195312 45.1875 C 25.808594 44.457031 26.914062 44.339844 27.796875 44.269531 C 29.488281 44.1875 31.171875 44.550781 32.78125 45.046875 C 33.464844 45.257812 34.21875 45.492188 34.839844 45.84375 C 33.488281 45.667969 32.066406 45.691406 30.734375 46.09375 Z M 51.953125 38.542969 C 51.847656 39.070312 51.179688 39.457031 50.765625 39.742188 C 50.167969 40.152344 49.742188 40.589844 49.34375 41.199219 C 49.214844 40.824219 49.179688 40.503906 48.953125 40.152344 C 48.390625 39.292969 47.507812 39.28125 46.613281 39.070312 C 46.273438 38.988281 46.039062 38.847656 45.863281 38.542969 C 45.765625 38.375 45.589844 37.953125 45.660156 37.765625 C 45.742188 37.578125 45.910156 37.496094 46.097656 37.4375 L 46.25 37.386719 C 47.25 37.328125 47.980469 37.683594 48.8125 38.1875 C 48.941406 38.269531 49.203125 38.421875 49.34375 38.445312 C 49.425781 38.457031 49.589844 38.398438 49.671875 38.375 C 50.097656 38.257812 50.496094 38.023438 50.894531 37.835938 C 51.097656 37.742188 51.332031 37.613281 51.554688 37.601562 C 51.71875 37.589844 51.800781 37.671875 51.917969 37.777344 C 52.011719 38.011719 52 38.28125 51.953125 38.542969 Z M 51.953125 38.542969 " fill-opacity="1" fill-rule="nonzero"/></g></svg>